<svg version="1.1" id="Layer_1" xmlns="http://www.w3.org/2000/svg" xmlns:xlink="http://www.w3.org/1999/xlink" x="0px" y="0px"
	 viewBox="0 0 1656.4 349.1" style="enable-background:new 0 0 1656.4 349.1;" xml:space="preserve">
<style type="text/css">
	.st0{fill:#DA9A45;}
	.st1{fill:#FFFFFF;}
</style>
<g>
	<g id="l6IMSt4WjkyaZkDww4IAy6r">
		<g>
			<path id="p3ZD91wnf" class="st0" d="M230.8,348.7c4.2-0.3,8.9-0.8,10.6-1.1c1.7-0.3,4.4-0.8,6-1c4.5-0.8,12.1-2.7,17.1-4.5
				c5.8-2,4.5-1.5,14.4-6.1c1.7-0.8,3.4-1.5,3.6-1.5c0.3,0,0.6-0.2,0.9-0.5c0.2-0.3,1.2-0.9,2.2-1.4c1.6-0.9,4.9-3,6.8-4.3
				c0.5-0.3,1.6-1.1,2.6-1.7c1-0.5,2.4-1.6,3.2-2.3c0.8-0.7,2-1.6,2.5-1.9c0.6-0.3,2.2-1.6,3.5-2.8c1.4-1.2,2.6-2.2,2.8-2.2
				s0.3-0.2,0.3-0.5c0-0.6,4.4-4.3,5-4.3c0.2,0,0.4-0.2,0.4-0.3c0-0.2,0.9-1.4,2-2.7c4.7-5.3,5.7-6.5,6.8-8c0.6-0.9,1.3-1.7,1.6-1.8
				c0.3-0.1,0.5-0.4,0.5-0.6s0.6-1.3,1.5-2.3c2.6-3.2,4.6-6.3,4.6-7c0-0.3,0.3-0.9,0.8-1.4c1.3-1.7,2.3-3.3,2.5-4.3
				c0.1-0.5,0.5-1,0.9-1.1s0.7-0.4,0.7-0.8s0.7-1.9,1.5-3.6c0.8-1.6,1.8-3.8,2.1-4.9c0.3-1.1,0.9-2.5,1.2-3.2c0.3-0.7,1.2-3,1.9-5.1
				c0.7-2.1,1.4-4.2,1.7-4.6c0.3-0.4,0.5-1.3,0.7-2c0.3-2,0.9-3.6,1.2-3.6c0.3,0,0.7-2.3,1.6-8.4c0.3-2,0.7-4.8,0.9-6.1
				c0.2-1.3,0.4-3.7,0.5-5.2c0.1-1.6,0.3-2.8,0.5-2.8c0.4,0,0.1-115.3-0.3-119.2c-0.5-4.2-1.1-8.3-1.3-8.6c-0.1-0.1-0.4-2.2-0.7-4.4
				c-0.3-2.3-0.6-4.4-0.8-4.5c-0.2-0.2-0.8-2-1.4-4s-1.6-5.2-2.3-7.2c-0.6-2-1.3-4.1-1.4-4.8c-0.1-0.6-0.6-1.9-1.1-2.8
				c-0.5-0.9-1-1.7-1-1.9c0-0.5-5.5-11.3-7.2-13.9c-0.8-1.3-1.4-2.4-1.4-2.6s-0.9-1.5-2-3s-2-2.9-2-3c0-0.1-0.9-1.3-2-2.7
				s-2.3-2.9-2.6-3.4c-0.7-1.1-7.8-9-9.5-10.6c-0.6-0.5-2.2-2-3.4-3.2c-3.9-3.6-9.5-8.1-12.8-10.2c-0.3-0.2-1.4-1-2.5-1.8
				s-2-1.5-2.2-1.5c-0.1,0-1.1-0.6-2.2-1.3c-2.5-1.6-7.2-4.2-7.7-4.2c-0.2,0-0.9-0.4-1.5-0.8c-1.5-1-10.7-5-13.7-5.9
				c-1.2-0.4-3.1-1-4.3-1.4c-4.3-1.5-7.8-2.4-8.8-2.4c-0.6,0-2.6-0.4-4.5-0.9s-4.1-0.9-5-0.9s-3.3-0.3-5.4-0.6
				c-2.6-0.5-4.6-0.6-6.3-0.5s-2.6,0.1-2.8-0.2C228-0.1,126-0.1,126,0.4s-3.3,0.4-4.1-0.1c-0.6-0.4-0.8-0.4-0.9,0
				c-0.1,0.3-1.5,0.4-5.2,0.4c-5.1,0-9.9,0.5-10.3,1c-0.2,0.3-3.8,1-7.5,1.4c-2.6,0.3-4.1,0.7-9.3,2.2c-3,0.9-7.7,2.5-8.3,3
				c-0.2,0.1-0.9,0.3-1.5,0.5c-1.2,0.2-6.7,2.7-10.2,4.6c-0.3,0.1-1.3,0.6-2.2,1.1c-3.1,1.6-5.8,3.1-6.3,3.5
				c-0.3,0.3-1.3,0.9-2.3,1.3c-1,0.5-2.3,1.3-2.9,1.9c-0.6,0.6-1.3,1.1-1.4,1.1s-0.5,0.3-0.9,0.6c-0.4,0.3-1.3,1-2,1.5
				s-1.9,1.4-2.7,2.1c-0.8,0.7-1.6,1.3-1.8,1.3s-0.7,0.5-1.2,1c-0.4,0.6-0.9,1-1,1c-0.6,0-14.6,13.8-14.6,14.4c0,0.2-0.4,0.8-1,1.3
				c-1.1,1-4.1,4.9-4.8,6.1c-0.3,0.5-1.1,1.6-1.7,2.4c-1.3,1.6-2.3,3.2-4.2,7c-0.7,1.3-1.4,2.3-1.6,2.3c-0.2,0-0.3,0.2-0.3,0.4
				s-0.4,0.9-0.9,1.6S14,66.8,14,67c0,0.3-0.2,0.8-0.5,1c-0.3,0.3-0.8,1.4-1.2,2.4s-1.3,2.9-1.9,4.1c-0.6,1.2-1.3,2.7-1.4,3.3
				c-0.1,0.6-0.7,2-1.2,3s-1,2.3-1,2.9c0,0.5-0.1,1-0.3,1c-0.7,0-2.8,7.7-3.5,12.8c-0.2,1.7-0.5,3.3-0.7,3.6
				c-0.9,1.4-1.7,6.6-2,12.8C-0.3,124-0.5,137.3,0,137.3c0.3,0,0.4,10.5,0.4,41c0,27.1-0.1,41-0.3,41s-0.3,1.4-0.3,3.6
				c0,2.2,0.1,3.6,0.3,3.6s0.3,1.8,0.3,5.1c-0.1,5.9,0.2,8.9,0.9,8.9c0.3,0,0.4,0.7,0.4,2.9c0,2.3,0,3,0.5,3.3
				c0.6,0.5,0.9,1.8,1.3,6.4c0.2,2.4,0.4,3.3,0.8,3.6c0.4,0.3,0.8,1.5,1.1,3.3c0.7,4,1.2,5.4,1.7,5.4c0.3,0,0.4,0.4,0.4,1.2
				c0,0.6,0.3,1.7,0.6,2.3s0.8,1.8,1,2.8c0.2,0.9,0.9,2.3,1.4,3c0.5,0.8,1,1.7,1,2c0,0.4,0.5,1.6,1.2,2.8c0.6,1.2,1.2,2.4,1.2,2.7
				s0.4,1.1,1,1.8c0.5,0.7,1.5,2.4,2.3,3.7c0.7,1.3,1.7,2.9,2.2,3.6c0.5,0.6,1.4,1.9,1.9,2.8c2.1,3.3,4.6,6.7,6.1,8.4
				c0.9,1,2,2.3,2.5,3c1,1.4,11.9,12.4,12.3,12.4c0.1,0,0.8,0.5,1.4,1.1c2.3,1.9,8,6.4,9.9,7.6c1,0.7,2.7,1.8,3.6,2.5
				c1,0.6,3.1,2,4.8,3s3.1,1.9,3.2,2c0.1,0.1,0.3,0.3,0.5,0.3s2.6,1.1,5.3,2.4s5.7,2.6,6.7,2.9s1.9,0.6,2.1,0.8c0.5,0.4,5.5,2,6.2,2
				c0.4,0,0.8,0.1,1,0.3c0.6,0.5,7.1,2.4,9.6,2.8c1.3,0.2,2.8,0.5,3.3,0.6s2,0.4,3.3,0.6c1.4,0.1,2.9,0.4,3.3,0.5
				c0.7,0.2,10.3,1.1,15.8,1.4c1,0.1,24.2,0.1,51.4,0.2C214.9,349.3,224.5,349.1,230.8,348.7z"/>
			<path id="p1Dxf3A4fz" class="st1" d="M160.7,310c-0.2-0.2-2.1-0.5-4.3-0.6c-5-0.4-6-0.5-11.5-1.9c-2.5-0.7-5.2-1.3-6-1.5
				c-2.4-0.5-3.7-0.9-7.2-2.1c-1.9-0.6-4.6-1.6-6.1-2c-1.5-0.5-3.9-1.4-5.4-2.1s-2.9-1.2-3.3-1.2c-0.4,0-0.7-0.1-0.7-0.3
				c0-0.2-1.6-1.1-3.7-2.1c-2-1-3.9-1.9-4.2-2.2c-0.3-0.2-1.4-0.9-2.6-1.5c-1.2-0.6-3.3-1.9-4.9-2.9c-1.5-1-2.9-1.8-3-1.8
				c-0.2,0-3.2-2.4-3.7-2.9c-0.2-0.2-0.8-0.7-1.4-1.1c-5.9-3.8-16-13.1-21.9-20.3c-1.5-1.8-2.8-3.4-3-3.6c-0.5-0.5-2.9-3.6-4.1-5.4
				c-0.5-0.8-1.6-2.4-2.5-3.5c-1.4-2-3-4.5-6.3-10.2c-1.4-2.5-3.4-6.6-5.4-11.3c-0.4-0.9-0.9-2-1.1-2.3c-0.9-1.5-2.8-7.1-3.1-8.7
				c-0.2-1-0.5-2.2-0.9-2.6c-0.8-1.2-3.5-12.2-3.9-16.1c-0.2-1.9-0.5-4.6-0.7-6c-1.2-10.1-1.4-13-1.3-20.8c0.1-4.4,0.3-9,0.5-10.2
				s0.5-4.2,0.7-6.7c0.4-5.6,0.8-8.2,1.7-11.4c0.4-1.4,1-3.6,1.2-4.8c1.1-4.6,1.3-5.1,1.5-5.1s0.3-0.2,0.3-0.5c0-0.9,1.4-5,2.5-7.3
				c0.5-1.2,1.1-2.7,1.2-3.2c0.1-0.6,0.3-1.2,0.4-1.4c0.1-0.2,0.4-0.9,0.6-1.6c0.2-0.7,0.5-1.3,0.7-1.3c0.1,0,0.4-0.6,0.7-1.4
				c0.2-0.8,0.8-2.1,1.1-2.8c2-3.9,3.2-5.8,3.6-6c0.2-0.1,0.5-0.7,0.6-1.2s0.6-1.4,1.1-2c0.4-0.6,0.8-1.2,0.8-1.4
				c0-0.3,2.7-4.3,3.1-4.6c0.1-0.1,0.5-0.8,0.8-1.4c0.3-0.7,0.7-1.3,0.9-1.4s0.9-1.2,1.5-2.4c0.7-1.2,1.5-2.3,1.8-2.4
				s1.4-1.3,2.4-2.7c3.4-4.7,10.8-12.3,18.1-18.6c0.9-0.8,2-1.8,2.5-2.3c1.1-1.1,4.2-3.3,4.6-3.3c0.2,0,0.8-0.4,1.3-0.9
				c2.4-2.2,14.5-9.6,18.5-11.3c1-0.4,2.3-1,3.1-1.4c5.2-2.7,15.5-6.6,17.6-6.6c0.6,0,1.4-0.2,1.8-0.5c0.9-0.6,6.1-2,10.1-2.8
				c1.4-0.2,2.8-0.5,3-0.6c4.2-1.6,40.6-2,46.7-0.5c0.8,0.2,2.4,0.5,3.6,0.6c3.2,0.5,10.8,2.3,11.3,2.7c0.2,0.2,1.4,0.5,2.5,0.8
				c1.1,0.2,3,0.8,4.3,1.3s3.1,1.1,4.1,1.5c3.4,1.2,4.9,1.7,8.1,3.3c1.7,0.8,3.2,1.5,3.4,1.5c0.8,0,13.8,7.4,15.1,8.5
				c0.3,0.3,1.4,1,2.3,1.5c1,0.5,2.4,1.5,3.1,2.1c0.8,0.6,1.5,1.2,1.6,1.2c0.3,0,8.4,6.7,11,9.1c1.2,1.1,3.1,3,4.3,4.2
				c1.2,1.2,2.7,2.7,3.3,3.4c1.4,1.4,8.8,10.4,8.8,10.7c0,0.1,0.9,1.3,1.9,2.6s1.9,2.4,1.9,2.6s0.8,1.4,1.8,2.9
				c1,1.4,2.7,4.2,3.8,6.2s2.4,4.1,2.8,4.8c0.4,0.6,0.8,1.4,0.8,1.7s0.4,1,0.9,1.5c0.9,1,1.8,3.2,1.8,4.2c0,0.3,0.3,0.9,0.7,1.3
				s0.8,1.2,0.9,1.8c0.1,0.5,0.3,1,0.5,1s0.3,0.4,0.3,1c0,1.2,0.9,3.9,1.5,4.3c0.7,0.6,1.3,2.2,1.3,3.7s0.8,4.4,1.5,5.3
				c0.4,0.5,0.8,2.3,1.3,5.5c0.2,1.2,0.5,2.4,0.8,2.6c0.8,0.6,1.5,6,2.4,18.9c0.5,6.9,0.5,9.2,0.2,16.4c-0.4,7.9-1.4,16.4-2.4,20
				c-0.2,0.8-0.5,2.5-0.7,3.9s-0.5,2.6-0.6,2.8c-0.3,0.2-1.7,5.4-2,7.8c-0.1,0.6-0.3,1.2-0.4,1.3c-0.2,0.1-0.3,0.5-0.3,1
				c0,0.4-0.2,1-0.4,1.3c-0.5,0.5-4.1,9.7-4.5,11.3c-0.1,0.5-0.4,0.9-0.5,0.9c-0.2,0-0.3,0.2-0.3,0.4s-0.3,1-0.6,1.8
				s-0.9,1.9-1.2,2.6c-0.3,0.6-1,1.8-1.5,2.6s-1.2,2-1.4,2.7c-0.4,1.3-1,2-4,5.1c-1.9,2-3.9,2.8-8.7,3.4c-2.1,0.3-6.2-0.7-7.8-1.9
				c-0.6-0.5-5.5-5.2-10.8-10.4c-8.4-8.4-11.4-11.1-15.5-14c-0.5-0.4-2.4-1.7-4.2-3.1c-1.7-1.3-3.7-2.7-4.2-3.1s-1.5-1-2.2-1.3
				c-0.6-0.3-1.7-0.9-2.5-1.4l-1.4-0.9l-0.5,0.8c-0.3,0.4-0.8,1-1.2,1.3s-1.4,1.5-2.3,2.6c-0.9,1.1-2.5,3-3.6,4.1s-1.9,2.2-1.9,2.4
				s-0.4,0.5-0.9,0.6s-0.9,0.4-0.9,0.7c0,0.2-0.4,0.6-0.8,0.8c-0.4,0.2-1.7,1.1-2.7,1.9c-2.3,1.9-6.7,4.8-9.6,6.3
				c-1.1,0.6-2.2,1.2-2.4,1.4s-0.5,0.3-0.8,0.3s-0.8,0.2-1,0.5c-0.3,0.2-1.8,0.9-3.3,1.3c-1.5,0.5-3.3,1.1-4.1,1.4
				c-0.8,0.3-3.2,0.9-5.5,1.4s-4.2,1.1-4.3,1.3c-0.4,0.6-22.4,0.6-22.8,0c-0.1-0.2-1.2-0.6-2.5-0.8c-4.4-0.7-12-3-14.7-4.4
				c-0.3-0.2-0.9-0.3-1.2-0.3s-1-0.4-1.6-0.9c-0.5-0.5-1.2-0.9-1.5-0.9c-0.5,0-2.4-1.1-4-2.4c-0.5-0.4-1.1-0.7-1.3-0.7
				s-1.2-0.6-2.2-1.5c-1-0.8-2.9-2.3-4.2-3.2c-2.6-1.9-7.4-6.8-10.1-10.2l-1.7-2.2l-0.9,0.6c-1.5,1-6.1,4.5-6.3,4.8
				c0,0.2-1.3,0.9-2.7,1.6l-2.6,1.3l-4.4-0.1c-4.1-0.1-4.5-0.2-6-1.1c-2.2-1.3-4.8-3.9-5.8-5.7c-0.8-1.4-0.8-1.9-0.8-6.3
				s0.3-6,1.1-6.7c0.1-0.1,0.7-0.9,1.2-1.7c0.6-0.9,1.5-1.9,2-2.4s1.8-1.6,2.7-2.5s2.3-1.9,2.9-2.3c0.6-0.3,2.7-1.7,4.4-3l3.2-2.4
				l-0.1-1.7c0-0.9-0.2-2.6-0.4-3.7c-0.2-1.3-0.3-5.7-0.2-11.6c0.1-7.8,0.3-10.1,0.8-12.5c1.4-6.2,2.9-10.9,3.5-10.9
				c0.1,0,0.4-0.7,0.6-1.6c0.2-0.9,0.8-2.2,1.3-3c0.4-0.8,0.8-1.6,0.8-1.8c0-0.2,0.3-0.8,0.7-1.3s0.7-1.2,0.7-1.5s0.5-1.1,1.2-1.8
				c0.6-0.6,1.2-1.4,1.2-1.6c0-0.6,2.7-4.6,4.1-6c0.6-0.6,1.1-1.2,1.1-1.3c0-0.2,6.4-6.5,8.2-8c0.9-0.8,1.8-1.4,2-1.4
				s0.4-0.2,0.5-0.5c0.2-0.4,6.2-4.5,8.5-5.8c2.7-1.4,6.2-3,6.9-3c0.4,0,1-0.2,1.3-0.5c0.6-0.6,2.7-1.4,4.8-1.9c0.8-0.2,2.5-0.6,4-1
				c3.8-1,7.2-1.4,14-1.7c4.4-0.1,6.1-0.1,6.3,0.2s1.6,0.4,4.2,0.4c2.8,0,4.8,0.2,6.7,0.7c1.5,0.4,3.3,0.8,4.1,1
				c2,0.4,4.3,1.3,5,1.8c0.3,0.2,1.1,0.5,1.7,0.7c2.5,0.5,7,2.5,9.2,4.3c0.6,0.5,1.6,1.1,2,1.3c3.7,1.9,8.2,5.5,12.9,10.2
				c2.1,2.2,3.8,4.1,3.8,4.2c0,0.1,1,1.5,2.2,3s2.2,2.9,2.2,3.1s0.6,1.3,1.3,2.3c0.7,1.1,1.9,3.1,2.6,4.5c0.7,1.4,1.4,2.6,1.5,2.7
				c0.1,0.1,0.4,1,0.6,1.9c0.2,1,0.9,3,1.4,4.6c0.6,1.6,1.6,4.5,2.2,6.5c1.1,3.6,1.1,3.7,1.2,12.8c0.1,8.3,0,11.7-0.8,15.4
				c-0.1,0.5,0.1,0.8,1,1.1c0.6,0.2,2.3,1.2,3.7,2.1c1.4,1,2.6,1.7,2.8,1.7c0.3,0,8.3,5.4,11.2,7.6c3.1,2.3,8.6,6.8,9.7,7.9
				c1.5,1.5,5,4.4,5.1,4.3c0.4-0.5,2-5.4,2.4-7.3c0.7-2.8,1.1-4,1.5-4.3c0.2-0.1,0.4-1.3,0.5-2.6s0.3-2.7,0.5-3.1
				c0.6-1.5,1.5-8.2,1.8-14c0.6-11.2-0.4-22.5-2.8-31.6c-0.4-1.7-2.9-9.3-4.1-12.6c-1-2.9-6.1-13.5-8.2-17
				c-7.6-13.2-22.1-28.4-33.2-35c-0.6-0.3-1.7-1.1-2.5-1.7c-0.8-0.6-1.8-1.3-2.4-1.6c-2.8-1.4-8.6-4.5-9.2-4.9
				c-0.4-0.2-1.2-0.5-1.8-0.7c-0.6-0.1-1.5-0.5-1.9-0.9s-0.9-0.6-1.2-0.6s-1.2-0.3-1.9-0.6c-1.3-0.6-6.3-2.3-11.1-3.7
				c-1.2-0.4-3.5-0.9-5.1-1.1s-3.4-0.6-4.1-0.9c-0.7-0.2-3.4-0.6-6.2-0.9c-2.7-0.2-5.1-0.5-5.2-0.6c-0.5-0.3-16.8-0.1-18.3,0.3
				c-0.9,0.2-2.8,0.4-4.4,0.5c-1.6,0-3,0.2-3.1,0.4c-0.1,0.2-2.3,0.7-4.8,1.1c-4.7,0.8-12.8,3.1-15.7,4.6c-0.9,0.4-2.1,1-2.7,1.2
				c-1.8,0.5-11.5,5.5-13.8,7.1c-1.1,0.7-2.3,1.5-2.6,1.7c-0.3,0.2-1,0.7-1.6,1.1s-1.2,0.8-1.3,0.8c-0.4,0-6.7,4.6-6.7,4.8
				s-0.4,0.4-0.9,0.6s-1,0.6-1.1,1s-0.3,0.7-0.5,0.7s-0.9,0.6-1.7,1.3c-1.7,1.6-2.8,2.5-3.6,3.1c-0.3,0.3-0.8,0.9-1.1,1.3
				c-0.2,0.4-0.6,0.8-0.9,0.8s-0.5,0.2-0.5,0.5c0,0.2-1,1.4-2.1,2.5c-3,2.8-3.7,3.6-3.7,3.9c0,0.2-0.5,0.8-1.2,1.5
				c-0.6,0.6-1.3,1.5-1.4,1.9c-0.1,0.4-0.6,1-1.1,1.4c-0.4,0.3-1.2,1.4-1.6,2.2c-0.4,0.9-1.3,2.1-1.8,2.7s-1.3,1.7-1.8,2.6
				c-0.4,0.8-1.4,2.6-2.1,3.9c-1.7,3-2.3,4.2-2.5,5.3c-0.1,0.5-0.5,1.2-0.9,1.6c-1.1,1.2-2.4,4.1-2.4,5.3c0,0.7-0.3,1.5-0.9,2.1
				c-0.5,0.6-0.9,1.6-1,2.6c-0.1,0.9-0.4,2-0.7,2.6c-0.9,2-1.9,5.4-2.2,7.6c-0.2,1.3-0.5,2.3-0.6,2.4c-1,0.3-3.3,17.8-2.5,18.1
				c0.6,0.2,0.5,3-0.1,3.3c-0.3,0.1-0.5,0.6-0.5,1.6s0.2,1.5,0.5,1.6c0.6,0.2,0.7,2.5,0.2,2.5c-0.2,0-0.3,0.7-0.3,1.5
				c0,0.9,0.2,1.5,0.4,1.5c0.3,0,0.3,0.8,0.2,2.4c-0.1,1.8-0.1,2.5,0.3,2.9c0.4,0.4,0.4,0.9,0.3,2.2c-0.2,1.8,0.3,4.6,1,5.5
				c0.3,0.3,0.4,1.3,0.4,2.4c-0.1,2,0.9,5.7,1.7,6.3c0.2,0.2,0.4,1.1,0.4,1.9c0,1,0.3,2.2,0.9,3.2c0.5,0.9,0.9,2,0.9,2.4
				s0.3,1.1,0.6,1.5s0.8,1.6,1,2.7c0.2,1,0.6,2.2,0.9,2.7c0.2,0.5,1.4,2.8,2.6,5.2c2.7,5.6,3.6,7.1,4.8,8.4c0.6,0.6,1,1.3,1,1.6
				s0.2,0.7,0.5,0.9s0.5,0.6,0.5,0.8s0.2,0.6,0.6,1c0.3,0.3,0.7,0.9,0.9,1.3c0.4,0.6,2.2,3.1,3,4.1c0.2,0.3,1.3,1.6,2.5,3
				c1.1,1.4,4,4.6,6.5,7c3.8,3.8,5.4,5.2,9.6,8.4c0.2,0.1,1.2,0.9,2.3,1.7c1,0.9,3.3,2.5,5.1,3.7c1.8,1.2,3.3,2.3,3.4,2.4
				c0.1,0.1,2.9,1.6,6.3,3.4c3.4,1.7,6.2,3.3,6.3,3.4s0.8,0.3,1.4,0.4c0.7,0.1,1.8,0.4,2.4,0.7c0.6,0.3,2.5,1,4.2,1.6
				s3.6,1.3,4.1,1.5c1.3,0.6,2.6,1,8.4,2.3c6.8,1.5,7.7,1.6,15.7,2.2c9.6,0.6,19.5,0.1,27.1-1.6c1.7-0.3,3.6-0.6,4.2-0.6
				c0.6,0,1.2-0.2,1.4-0.3c0.2-0.2,1.4-0.4,2.7-0.6c1.5-0.1,2.6-0.4,3-0.8c0.4-0.3,1.6-0.9,2.8-1.2c1.1-0.3,3-1,4.3-1.5
				c1.2-0.5,2.9-1.2,3.7-1.4c0.9-0.2,2.1-0.8,2.8-1.2s2.9-1.6,5-2.6c2-1,3.8-1.9,3.9-2c0.2-0.2,2.9-1.7,5.1-2.8
				c1.3-0.6,2.3-0.8,5.7-0.9c3.9-0.1,4.3-0.1,6.1,0.8c1.2,0.5,2.8,1.7,4.1,3c1.7,1.7,2.3,2.5,2.8,4.2c0.3,1.1,0.8,2.1,0.9,2.2
				c0.7,0.3,0,7.6-0.7,7.9c-0.2,0.1-0.4,0.3-0.4,0.5c0,0.8-1.9,4.3-2.3,4.3c-0.2,0-0.6,0.3-0.8,0.7c-0.2,0.4-0.5,0.7-0.7,0.7
				c-0.3,0-2.9,1.6-3.7,2.3c-0.2,0.2-0.8,0.5-1.2,0.6s-1.5,0.7-2.5,1.3s-3,1.6-4.5,2.3c-1.5,0.7-3.1,1.5-3.6,1.8s-2.5,1.2-4.5,1.9
				c-2,0.8-4.4,1.8-5.3,2.2c-1.5,0.8-2.8,1.2-9.5,3.1c-4,1.1-6.5,1.7-9.9,2.4c-1.5,0.3-2.8,0.7-2.9,0.9c-0.2,0.3-2.3,0.6-11.2,1.3
				C182.1,310.2,161.2,310.4,160.7,310z M185,215.1c3.3-1,10.1-4.1,11.4-5.3c0.3-0.2,1-0.6,1.5-1c1.9-1,6.7-5.2,6.7-6
				c0-0.5-1.4-1.1-2.9-1.1c-0.6,0-1.2-0.2-1.3-0.4c-0.1-0.4-3.1-1.3-5.9-1.7c-1.1-0.1-3.4-0.5-5.1-0.9c-2.2-0.4-5-0.6-9.6-0.6
				c-6.1,0-8.7,0.1-14.8,1.1c-1.4,0.2-2.9,0.3-3.4,0.2c-1.7-0.3-12.9,2-16.1,3.4l-1.5,0.6l2.5,2c1.4,1.1,3.5,2.7,4.7,3.6
				c3.2,2.2,9.9,5.5,11,5.5c0.5,0,1.4,0.2,2.1,0.4c3.4,1,5.8,1.3,11.3,1.2C180.9,216.2,181.5,216.2,185,215.1z M137.7,176.6
				c1.8-0.4,3.9-1.1,4.8-1.3c2.9-0.9,11.2-2.4,18.6-3.3c4.5-0.5,24.2-1,26.5-0.6c1,0.2,3.7,0.4,6,0.6c2.3,0.2,4.4,0.5,4.8,0.6
				s1.4,0.4,2.2,0.5c2.6,0.3,8.3,1.6,9.1,2.2c0.4,0.3,1.6,0.6,2.7,0.9c1.1,0.2,2.3,0.4,2.7,0.5c0.7,0.2,0.8,0.1,0.8-2.3
				c0-5.8-1.7-12.8-4.4-17.7c-0.6-1.2-1.6-3-2.1-4c-1.3-2.6-6-7.9-9.2-10.4c-2.3-1.8-8.1-5.2-10.4-6.1c-1.1-0.4-2.5-1-3.1-1.2
				c-0.5-0.2-2.4-0.8-4.1-1.2c-2.6-0.6-3.9-0.8-8.4-0.7c-2.9,0-5.4,0.2-5.5,0.3s-1.3,0.4-2.7,0.7c-1.4,0.2-3.6,0.8-4.9,1.1
				c-3.1,1-8.9,4-11.6,6c-2.5,1.9-8.1,7.5-8.1,8.1c0,0.2-0.2,0.5-0.5,0.6c-0.3,0.1-0.8,0.7-1.1,1.3s-0.8,1.3-1.1,1.6
				c-1,1-3.8,7.2-4.4,9.5c-0.3,1.3-0.7,2.5-1,2.8c-0.2,0.3-0.4,1.5-0.3,3.1c0,1.8-0.1,2.7-0.4,3c-0.5,0.5-0.6,2.5-0.1,2.5
				c0.2,0,0.3,0.9,0.3,2.1c0,2,0,2.1,0.8,1.9C134.1,177.6,136,177.1,137.7,176.6z"/>
		</g>
	</g>
	<g>
		<path class="st0" d="M509.4,62.7c0,0-9.2,4.2-29.3,4.2l-96.9-0.1c-21.9,0-25.1,16.6-25.1,30.4c0,0,9.2-4.2,29.3-4.2l28.2,0.1
			v148.1c0,17.2,35.4,17.2,35.4,17.2V93.1h33.3C506.3,93.1,509.4,76.4,509.4,62.7z"/>
		<path class="st0" d="M550.9,116.6c-21.6,0-52.5,6.9-52.5,29.8c0,7.1,2.4,15.3,10,25.6c0-22.2,20.1-29.8,42.2-29.8
			c20.3,0,25.6,8.4,25.6,18c-10.8,20.9-81.6,7.9-81.6,57.3c0,31.4,26.7,41.4,53.9,41.4c15,0,28.2-4.8,41.4-4.8
			c6.6,0,13.5,0.8,20.3,4.2v-96.6C610.3,132.9,589.7,116.6,550.9,116.6z M577,230.1c0,0-10.6,4.8-24.6,4.8c-15,0-23.8-6.1-23.8-18
			c0-23.5,42.2-15.8,48.3-29.8L577,230.1L577,230.1z"/>
		<path class="st0" d="M703.5,116.6c-14.3,0-26.4,5.5-39.3,5.5c-13.5,0-23.8-5.5-23.8-5.5v123.8c0,17.2,34.3,17.2,34.3,17.2V145.9
			c0,0,11.6-3.7,25.1-3.7c18.7,0,25.3,7.9,25.3,21.9v76.3c0,16.6,34.3,17.2,34.3,17.2v-97.4C759.4,125.8,730.7,116.6,703.5,116.6z"
			/>
		<path class="st0" d="M801.7,98.6h23.2V76.7c0-3.7-5.5-7.7-9.8-7.7h-23.2v21.9C791.9,94.7,796.1,98.6,801.7,98.6z"/>
		<path class="st0" d="M791.1,117.9v122.5c0,17.2,34.3,17.2,34.3,17.2V135.1C825.4,118.1,793.2,117.9,791.1,117.9z"/>
		<path class="st0" d="M888.3,115.8c0-18,16.6-24.6,39.6-24.6c29.3,0,60.5,5.5,60.5,31.9c5.8-10.6,8.7-19.5,8.7-26.7
			c0-25.3-31.4-32.7-69.4-32.7c-41.7,0-75.8,13.2-75.8,56c0,76,114.8,34.1,114.8,82.9c0,18-13.5,28.8-40.9,28.8
			c-25.6,0-60.2-4.8-60.2-30.4c-6.6,9.5-9.5,17.7-9.5,24.6c0,24.8,36.7,33,69.7,33c44.9,0,77.6-19.3,77.6-58.3
			C1003.4,116.6,888.3,159.3,888.3,115.8z"/>
		<path class="st0" d="M1114.5,117.9v111.7c0,0-11.6,3.7-25.1,3.7c-18.7,0-25.3-7.9-25.3-21.9v-76.3c0-16.6-34.3-17.2-34.3-17.2
			v97.4c0,34.3,28.8,43.6,56,43.6c14.3,0,26.4-5.5,39.3-5.5c13.5,0,23.8,5.5,23.8,5.5V135.1C1148.8,117.9,1114.5,117.9,1114.5,117.9
			z"/>
		<path class="st0" d="M1240.2,116.6c-11.1,0-24.6,5-38.5,5c-7.1,0-14.3-1.6-21.1-5v184.5c0,20.1,31.9,19.8,34.3,19.8v-57
			c0-6.6-2.1-15.3-2.1-15.3s12.1,10.3,34.1,10.3c28.2,0,52.8-17.2,52.8-45.7v-50.7C1299.6,133.2,1277.9,116.6,1240.2,116.6z
			 M1265.3,209.2c0,17.2-9.2,24.6-21.9,24.6c-14.3,0-28.5-9-28.5-21.9v-67.1c0,0,10.3-3.2,22.2-3.2c21.9,0,28.2,8.2,28.2,24.8V209.2
			L1265.3,209.2z"/>
		<path class="st0" d="M1388.3,116.6c-11.1,0-24.6,5-38.5,5c-7.1,0-14.3-1.6-21.1-5v184.5c0,20.1,31.9,19.8,34.3,19.8v-57
			c0-6.6-2.1-15.3-2.1-15.3s12.1,10.3,34.1,10.3c28.2,0,52.8-17.2,52.8-45.7v-50.7C1447.7,133.2,1426,116.6,1388.3,116.6z
			 M1413.4,209.2c0,17.2-9.2,24.6-21.9,24.6c-14.3,0-28.5-9-28.5-21.9v-67.1c0,0,10.3-3.2,22.2-3.2c21.9,0,28.2,8.2,28.2,24.8V209.2
			L1413.4,209.2z"/>
		<path class="st0" d="M1509.7,207.6V71.1c0-16.9-32.2-17.2-34.3-17.2V216c0,22.2,9.8,41.4,31.2,41.4c6.6,0,14.8-1.1,21.9-10.6
			C1510,247,1509.7,221.9,1509.7,207.6z"/>
		<path class="st0" d="M1629,117.9v111.7c0,0-18.7,3.7-32.2,3.7c-18.7,0-25.3-7.9-25.3-21.9v-76.3c0-16.6-34.3-17.2-34.3-17.2v97.4
			c0,34.3,28.8,43.6,56,43.6c14.3,0,24-5.5,36.9-5.5v6.1c0,0,2.9,21.4-47.8,21.7c-14.3,0-27.7-10.8-28.5-21.9
			c-0.8-11.1-3.1,35.5-2.1,36.7s12.1,10.3,34.1,10.3c70,0.4,70.6-22.9,70.6-22.9v-24.5V135.1C1656.2,117.9,1629,117.9,1629,117.9z"
			/>
	</g>
</g>
</svg>