<?xml version="1.0" encoding="utf-8"?>
<!-- Generator: Adobe Illustrator 19.0.0, SVG Export Plug-In . SVG Version: 6.00 Build 0)  -->
<svg version="1.1" id="Layer_1" xmlns="http://www.w3.org/2000/svg" xmlns:xlink="http://www.w3.org/1999/xlink" x="0px" y="0px"
	 viewBox="0 0 480 480" style="enable-background:new 0 0 480 480;" xml:space="preserve">
<style type="text/css">
	.st0{fill:url(#XMLID_41_);}
	.st1{fill:url(#SVGID_1_);stroke:#FFFFFF;}
</style>
<g id="XMLID_39_">
	
		<linearGradient id="XMLID_41_" gradientUnits="userSpaceOnUse" x1="67.489" y1="378.9517" x2="445.0026" y2="79.2813" gradientTransform="matrix(1 0 0 -1 0 482)">
		<stop  offset="0" style="stop-color:#9013FE"/>
		<stop  offset="1" style="stop-color:#6610F2"/>
	</linearGradient>
	<path id="XMLID_38_" class="st0" d="M71.6,112.9c-0.8-23.4,17.4-45,42.1-45h252.6c24.7,0,42.9,21.6,42.1,45
		c-0.8,22.5,0.2,51.6,7.6,75.4c7.4,23.8,19.8,38.9,40.1,40.8V251c-20.3,1.9-32.7,17-40.1,40.8c-7.3,23.7-8.3,52.9-7.6,75.4
		c0.8,23.4-17.4,45-42.1,45H113.7c-24.7,0-42.9-21.6-42.1-45c0.8-22.5-0.2-51.6-7.6-75.4C56.7,268,44.3,252.9,24,251V229
		c20.3-1.9,32.7-17,40.1-40.8C71.4,164.5,72.4,135.3,71.6,112.9z"/>
	
		<linearGradient id="SVGID_1_" gradientUnits="userSpaceOnUse" x1="183.59" y1="319.3601" x2="267.9743" y2="176.6478" gradientTransform="matrix(1 0 0 -1 0 482)">
		<stop  offset="0" style="stop-color:#FFFFFF"/>
		<stop  offset="1" style="stop-color:#F1E5FC"/>
	</linearGradient>
	<path class="st1" d="M249.4,331.5c39.9,0,64-19.5,64-51.8c0-24.4-17.2-42-42.6-44.8v-1c18.7-3,33.4-20.4,33.4-39.8
		c0-27.7-21.8-45.7-55.1-45.7h-74.9v183.1H249.4z M203.2,171.6H242c21.1,0,33,9.4,33,26.4c0,18.1-13.9,28.3-39.1,28.3h-32.6
		C203.2,226.3,203.2,171.6,203.2,171.6z M203.2,308.3V248h38.5c27.6,0,41.9,10.2,41.9,29.9c0,19.8-13.9,30.3-40.2,30.3H203.2z"/>
</g>
</svg>
