<?xml version="1.0" encoding="utf-8"?>
<!-- Generator: Adobe Illustrator 19.0.0, SVG Export Plug-In . SVG Version: 6.00 Build 0)  -->
<svg version="1.1" xmlns="http://www.w3.org/2000/svg" xmlns:xlink="http://www.w3.org/1999/xlink" x="0px" y="0px"
	 viewBox="0 0 480 480" style="enable-background:new 0 0 480 480;" xml:space="preserve">
<style type="text/css">
	.st0{display:none;}
	.st1{display:inline;}
	.st2{fill:url(#XMLID_73_);}
	.st3{fill:url(#SVGID_1_);stroke:#FFFFFF;}
	.st4{fill:#EE4323;}
</style>
<g id="Layer_1" class="st0">
	<g id="XMLID_39_" class="st1">
		
			<linearGradient id="XMLID_73_" gradientUnits="userSpaceOnUse" x1="67.489" y1="378.9517" x2="445.0026" y2="79.2813" gradientTransform="matrix(1 0 0 -1 0 482)">
			<stop  offset="0" style="stop-color:#9013FE"/>
			<stop  offset="1" style="stop-color:#6610F2"/>
		</linearGradient>
		<path id="XMLID_38_" class="st2" d="M71.6,112.9c-0.8-23.4,17.4-45,42.1-45h252.6c24.7,0,42.9,21.6,42.1,45
			c-0.8,22.5,0.2,51.6,7.6,75.4c7.4,23.8,19.8,38.9,40.1,40.8V251c-20.3,1.9-32.7,17-40.1,40.8c-7.3,23.7-8.3,52.9-7.6,75.4
			c0.8,23.4-17.4,45-42.1,45H113.7c-24.7,0-42.9-21.6-42.1-45c0.8-22.5-0.2-51.6-7.6-75.4C56.7,268,44.3,252.9,24,251V229
			c20.3-1.9,32.7-17,40.1-40.8C71.4,164.5,72.4,135.3,71.6,112.9z"/>
		
			<linearGradient id="SVGID_1_" gradientUnits="userSpaceOnUse" x1="183.59" y1="319.3601" x2="267.9743" y2="176.6478" gradientTransform="matrix(1 0 0 -1 0 482)">
			<stop  offset="0" style="stop-color:#FFFFFF"/>
			<stop  offset="1" style="stop-color:#F1E5FC"/>
		</linearGradient>
		<path class="st3" d="M249.4,331.5c39.9,0,64-19.5,64-51.8c0-24.4-17.2-42-42.6-44.8v-1c18.7-3,33.4-20.4,33.4-39.8
			c0-27.7-21.8-45.7-55.1-45.7h-74.9v183.1H249.4z M203.2,171.6H242c21.1,0,33,9.4,33,26.4c0,18.1-13.9,28.3-39.1,28.3h-32.6
			C203.2,226.3,203.2,171.6,203.2,171.6z M203.2,308.3V248h38.5c27.6,0,41.9,10.2,41.9,29.9c0,19.8-13.9,30.3-40.2,30.3H203.2z"/>
	</g>
</g>
<g id="Layer_2">
	<path id="XMLID_40_" class="st4" d="M175.9,456c-25.9-11.2-50.1-39.7-50.2-68.8c-0.1-31.7,20-58.7,45.1-76.4
		c-3,11.4-4.6,21.8,2.8,31.9c6.9,9.5,19.1,14,30.5,11.6c26.8-5.9,28-35.3,12.1-52.4c-15.7-17-30.9-36.2-24.9-60.8
		c3-12.3,10.6-23.9,20.2-32.2c-7.4,19.4,13.6,38.5,27.4,48c24,16.5,50.3,29,72.3,48.4c23.2,20.4,40.3,47.9,36.8,79.8
		c-3.7,34.6-31.3,58.7-62.1,70.8c65.2-14.4,132.6-65,133.9-137.3c1.1-59.5-39.7-105.3-90.2-131.5l-2.6-1.4c1.4,3.4,1.8,6.2,1.8,8.8
		c0.5-1.9,0.8-3.8,0.8-5.8c0,2.4-0.3,4.8-0.9,7.1l0.1-1.2c-0.8,3.2-2,6.2-3.7,8.9l0.7-0.8c-10.1,16.7-37.4,20.4-50.9,3
		c-21.7-27.9,0.5-57.9,3.6-87.4c3.9-37-19.3-72.9-48.1-94.3c15.8,25.6-5,59.5-21.7,78.4c-16.2,18.4-35.9,33.7-53.7,50.4
		c-19.2,17.9-37.6,36.8-53.4,57.8C70,252.8,50.7,305.7,64.9,358.3C79,410.7,124.5,444.2,175.9,456L175.9,456z"/>
</g>
</svg>
