<?xml version="1.0" encoding="utf-8"?>
<!-- Generator: Adobe Illustrator 19.0.0, SVG Export Plug-In . SVG Version: 6.00 Build 0)  -->
<svg version="1.1" xmlns="http://www.w3.org/2000/svg" xmlns:xlink="http://www.w3.org/1999/xlink" x="0px" y="0px"
	 viewBox="0 0 480 480" style="enable-background:new 0 0 480 480;" xml:space="preserve">
<style type="text/css">
	.st0{display:none;}
	.st1{display:inline;}
	.st2{fill:url(#XMLID_81_);}
	.st3{fill:url(#SVGID_1_);stroke:#FFFFFF;}
	.st4{display:inline;fill:#EE4323;}
	.st5{fill:#0170BA;}
	.st6{fill:#29A9DF;}
	.st7{fill:#CFCFCF;}
	.st8{fill:#FFFFFF;}
</style>
<g id="Layer_1" class="st0">
	<g id="XMLID_39_" class="st1">
		
			<linearGradient id="XMLID_81_" gradientUnits="userSpaceOnUse" x1="67.489" y1="378.9517" x2="445.0026" y2="79.2813" gradientTransform="matrix(1 0 0 -1 0 482)">
			<stop  offset="0" style="stop-color:#9013FE"/>
			<stop  offset="1" style="stop-color:#6610F2"/>
		</linearGradient>
		<path id="XMLID_38_" class="st2" d="M71.6,112.9c-0.8-23.4,17.4-45,42.1-45h252.6c24.7,0,42.9,21.6,42.1,45
			c-0.8,22.5,0.2,51.6,7.6,75.4c7.4,23.8,19.8,38.9,40.1,40.8V251c-20.3,1.9-32.7,17-40.1,40.8c-7.3,23.7-8.3,52.9-7.6,75.4
			c0.8,23.4-17.4,45-42.1,45H113.7c-24.7,0-42.9-21.6-42.1-45c0.8-22.5-0.2-51.6-7.6-75.4C56.7,268,44.3,252.9,24,251V229
			c20.3-1.9,32.7-17,40.1-40.8C71.4,164.5,72.4,135.3,71.6,112.9z"/>
		
			<linearGradient id="SVGID_1_" gradientUnits="userSpaceOnUse" x1="183.59" y1="319.3601" x2="267.9743" y2="176.6478" gradientTransform="matrix(1 0 0 -1 0 482)">
			<stop  offset="0" style="stop-color:#FFFFFF"/>
			<stop  offset="1" style="stop-color:#F1E5FC"/>
		</linearGradient>
		<path class="st3" d="M249.4,331.5c39.9,0,64-19.5,64-51.8c0-24.4-17.2-42-42.6-44.8v-1c18.7-3,33.4-20.4,33.4-39.8
			c0-27.7-21.8-45.7-55.1-45.7h-74.9v183.1H249.4z M203.2,171.6H242c21.1,0,33,9.4,33,26.4c0,18.1-13.9,28.3-39.1,28.3h-32.6
			C203.2,226.3,203.2,171.6,203.2,171.6z M203.2,308.3V248h38.5c27.6,0,41.9,10.2,41.9,29.9c0,19.8-13.9,30.3-40.2,30.3H203.2z"/>
	</g>
</g>
<g id="Layer_2" class="st0">
	<path id="XMLID_40_" class="st4" d="M175.9,456c-25.9-11.2-50.1-39.7-50.2-68.8c-0.1-31.7,20-58.7,45.1-76.4
		c-3,11.4-4.6,21.8,2.8,31.9c6.9,9.5,19.1,14,30.5,11.6c26.8-5.9,28-35.3,12.1-52.4c-15.7-17-30.9-36.2-24.9-60.8
		c3-12.3,10.6-23.9,20.2-32.2c-7.4,19.4,13.6,38.5,27.4,48c24,16.5,50.3,29,72.3,48.4c23.2,20.4,40.3,47.9,36.8,79.8
		c-3.7,34.6-31.3,58.7-62.1,70.8c65.2-14.4,132.6-65,133.9-137.3c1.1-59.5-39.7-105.3-90.2-131.5l-2.6-1.4c1.4,3.4,1.8,6.2,1.8,8.8
		c0.5-1.9,0.8-3.8,0.8-5.8c0,2.4-0.3,4.8-0.9,7.1l0.1-1.2c-0.8,3.2-2,6.2-3.7,8.9l0.7-0.8c-10.1,16.7-37.4,20.4-50.9,3
		c-21.7-27.9,0.5-57.9,3.6-87.4c3.9-37-19.3-72.9-48.1-94.3c15.8,25.6-5,59.5-21.7,78.4c-16.2,18.4-35.9,33.7-53.7,50.4
		c-19.2,17.9-37.6,36.8-53.4,57.8C70,252.8,50.7,305.7,64.9,358.3C79,410.7,124.5,444.2,175.9,456L175.9,456z"/>
</g>
<g id="Layer_3">
	<g id="_x23_0170baff">
		<path id="XMLID_78_" class="st5" d="M49.9,25.3c126.7,0,253.3,0,380.1,0c-7,78.9-13.8,157.6-21.1,236.3
			c-4.3,50.4-8.8,100.6-13.5,151c-27,7.1-53.8,15.3-80.9,22.6c-24.8,7.2-49.8,13.9-74.6,21.1h-0.8c-23.7-7-47.5-13.2-71.2-20.2
			c-27.9-7.6-55.5-15.9-83.4-23.4C81,375,77.7,337.3,74.5,299.5c-6.1-69.7-12.8-139.4-18.6-209.1c-2-21-3.4-42-5.9-62.9v-2.2
			 M240.6,56.3c-0.2,15.1,0.2,30.3-0.2,45.4c-43.5-0.1-87,0-130.5,0c0.8,14.7,2.7,29.2,4.8,43.8c40.5,1.6,81,0,121.3,1.1
			c-35.4,15.9-71.2,30.8-106.8,46.4c-3,1.3-6.3,2.3-9,4.3c0.3,16.1,2.9,32.1,4,48.3c21.6-0.1,43.2-0.4,64.6-0.4
			c17.2-0.1,34.6,0.2,51.8-0.1c-0.8,26.6,0.2,53.2-0.6,79.6c-11.7-1.7-23.1-4.3-34.7-6.3c-9.1-2-18.5-3-27.5-5.7
			c-1.2-12.8-2.1-25.5-3.3-38.3c-2.6-0.8-5.3-0.7-8-0.8c-13,0.1-26.1,0-39.1,0.1c1.2,24.5,3.4,48.9,7.2,73.2
			c12.9,3.3,25.8,6.7,38.6,10.1c19.7,5.3,39.6,9.8,59.4,15.1c2.3,0.6,4.7,1.3,7.1,1.1c1.3,16.1,0.3,32.4,0.6,48.5
			c4.6-0.8,9-1.9,13.5-3.2c37.4-10.1,74.6-20.5,112-30.7c1.9-14.7,2.7-29.5,4.2-44.2c3.9-44.7,7.8-89.4,11.9-134.1
			c4.8-51.2,8.9-102.4,13.7-153.6C343.9,56.3,292.3,56.2,240.6,56.3z"/>
	</g>
	<g id="_x23_29a9dfff">
		<path id="XMLID_77_" class="st6" d="M240.6,56.3c51.7-0.1,103.3,0,155-0.1c-4.8,51.2-8.9,102.4-13.7,153.6
			c-4.1,44.7-8,89.4-11.9,134.1c-1.4,14.7-2.3,29.5-4.2,44.2c-37.4,10.2-74.6,20.6-112,30.7c-4.3,1.3-8.9,2.4-13.5,3.2
			c-0.2-16.1,0.8-32.4-0.6-48.5c0.3-0.1,1-0.2,1.3-0.2c34.7-8.7,69.3-18.4,103.9-27.4c4.3-49.2,9.2-98.3,12.3-147.6
			c-29.5,0.1-58.9,0.1-88.4,0.2c-4.3,0-8.6,0-12.9-0.3c15.9-8.1,32.6-14.7,48.8-21.9c15.7-7.1,31.5-13.7,47.2-20.7
			c3-1.4,6.2-2.6,8.9-4.7c1-3.8,1-7.9,1.4-11.8c0.9-12.5,2.6-24.8,3.1-37.3c-41.7-0.3-83.5,0-125.2-0.2
			C240.8,86.5,240.3,71.4,240.6,56.3z"/>
		<path id="XMLID_76_" class="st6" d="M240.8,245.1c20.1-0.3,40.4,0.2,60.5,0.1c-1.1,20.6-2.9,41.1-3.9,61.8
			c-12.3,4-24.9,7.5-37.4,11.2c-6.7,2-13.5,3.7-19.8,6.6C241,298.3,240,271.7,240.8,245.1z"/>
	</g>
	<g id="_x23_cfcfcfff">
		<path id="XMLID_75_" class="st7" d="M109.9,101.8c43.5,0,87-0.1,130.5,0c0.6,47.8-0.1,95.6,0.4,143.5c-17.2,0.3-34.6,0-51.8,0.1
			c-21.6,0-43.2,0.3-64.6,0.4c-1.1-16.1-3.8-32.1-4-48.3c2.7-2,6-3,9-4.3c35.5-15.6,71.3-30.5,106.8-46.4
			c-40.5-1.2-81,0.3-121.3-1.1C112.7,131,110.7,116.5,109.9,101.8z"/>
		<path id="XMLID_74_" class="st7" d="M127.6,273.9c13.1-0.2,26.1-0.1,39.1-0.1c2.7,0,5.4,0,8,0.8c1.1,12.8,2,25.6,3.3,38.3
			c9,2.6,18.4,3.7,27.5,5.7c11.6,2,23,4.7,34.7,6.3c1.1,16.1-0.9,32.4,1,48.5c-0.3,0.1-1,0.2-1.3,0.2c-2.4,0.2-4.8-0.7-7.1-1.1
			c-19.7-5.2-39.7-9.8-59.4-15.1c-12.9-3.4-25.8-6.8-38.6-10.1C131,322.9,128.8,298.4,127.6,273.9z"/>
	</g>
	<g id="_x23_ffffffff">
		<path id="XMLID_73_" class="st8" d="M240.3,101.7c41.7,0.2,83.5-0.1,125.2,0.2c-0.6,12.5-2.2,24.9-3.1,37.3
			c-0.4,3.9-0.3,7.9-1.4,11.8c-2.7,2.1-5.9,3.2-8.9,4.7c-15.7,7-31.5,13.6-47.2,20.7c-16.2,7.3-32.9,13.8-48.8,21.9
			c4.2,0.3,8.6,0.3,12.9,0.3c29.5-0.1,58.9,0,88.4-0.2c-3.1,49.3-7.9,98.4-12.3,147.6c-34.7,9-69.2,18.7-103.9,27.4
			c-1.9-16.1,0.1-32.4-1-48.5c6.3-3,13.1-4.6,19.8-6.6c12.5-3.8,25-7.1,37.4-11.2c1.1-20.6,2.8-41.1,3.9-61.8
			c-20.1,0.1-40.4-0.4-60.5-0.1C240.1,197.3,240.9,149.5,240.3,101.7z"/>
	</g>
</g>
</svg>
