<?xml version="1.0" encoding="utf-8"?>
<!-- Generator: Adobe Illustrator 19.0.0, SVG Export Plug-In . SVG Version: 6.00 Build 0)  -->
<svg version="1.1" id="Layer_1" xmlns="http://www.w3.org/2000/svg" xmlns:xlink="http://www.w3.org/1999/xlink" x="0px" y="0px"
	 viewBox="0 0 148.5 148.5" style="enable-background:new 0 0 148.5 148.5;" xml:space="preserve">
<style type="text/css">
	.st0{fill:#35A7FF;}
	.st1{fill:#FF6B6C;}
</style>
<g id="XMLID_5_">
	<path id="XMLID_3_" class="st0" d="M29.4,69.5c-1.6,2.2-4.1,3.8-7.6,4.7c3.5,0.9,6,2.5,7.6,4.7c1.6,2.2,2.3,5.5,2.3,9.8v34.7
		c0,8.2,4.4,12.3,13.3,12.3H47c1.4,0,2.6,1,2.6,2.3v7.9c0,1.3-1.2,2.3-2.6,2.3h-5.3c-9,0-15.8-2-20.4-5.9c-4.6-4-6.9-9.8-6.9-17.5
		V88.5c0-5.3-2.7-7.9-8.1-7.9H3.6c-2,0-3.6-1.4-3.6-3.2v-6.3c0-1.8,1.6-3.2,3.6-3.2h2.7c5.4,0,8.1-2.6,8.1-7.9V23.6
		c0-7.7,2.3-13.5,6.9-17.5c4.6-4,11.4-5.9,20.4-5.9H47c1.4,0,2.6,1,2.6,2.3v7.9c0,1.3-1.2,2.3-2.6,2.3h-1.9
		c-8.9,0-13.3,4.1-13.3,12.3v34.7C31.7,64,30.9,67.3,29.4,69.5z"/>
	<path id="XMLID_8_" class="st0" d="M148.4,71.1v6.3c0,1.8-1.6,3.2-3.6,3.2h-2.5c-5.3,0-7.9,2.6-7.9,7.9v36.4
		c0,7.7-2.3,13.5-6.9,17.5c-4.6,4-11.4,5.9-20.5,5.9h-5.3c-1.4,0-2.6-1-2.6-2.3v-7.9c0-1.3,1.2-2.3,2.6-2.3h1.7
		c9.1,0,13.7-4.1,13.7-12.3V88.8c0-4.4,0.7-7.7,2.3-9.9c1.5-2.2,4-3.7,7.5-4.7c-3.5-0.9-6-2.5-7.5-4.7c-1.5-2.2-2.3-5.5-2.3-9.9
		V25.1c0-8.2-4.6-12.3-13.7-12.3h-1.7c-1.4,0-2.6-1-2.6-2.3V2.5c0-1.3,1.2-2.3,2.6-2.3h5.3c9,0,15.8,2,20.5,5.9
		c4.6,4,6.9,9.8,6.9,17.5V60c0,5.3,2.6,7.9,7.9,7.9h2.5C146.8,67.9,148.4,69.4,148.4,71.1z"/>
</g>
<path id="XMLID_24_" class="st1" d="M51.1,2.5v7.8c0,1.3,1.2,2.3,2.6,2.3h11c1.4,0,2.6,1,2.6,2.3v33.2c0,1.3,1.2,2.3,2.6,2.3h8.9
	c1.4,0,2.6-1,2.6-2.3V14.9c0-1.3,1.2-2.3,2.6-2.3h11c1.4,0,2.6-1,2.6-2.3V2.5c0-1.3-1.2-2.3-2.6-2.3H53.7
	C52.2,0.2,51.1,1.2,51.1,2.5z"/>
<path id="XMLID_6_" class="st1" d="M51.1,146v-7.8c0-1.3,1.2-2.3,2.6-2.3h11c1.4,0,2.6-1,2.6-2.3v-33.2c0-1.3,1.2-2.3,2.6-2.3h8.9
	c1.4,0,2.6,1,2.6,2.3v33.2c0,1.3,1.2,2.3,2.6,2.3h11c1.4,0,2.6,1,2.6,2.3v7.8c0,1.3-1.2,2.3-2.6,2.3H53.7
	C52.2,148.3,51.1,147.3,51.1,146z"/>
</svg>
