<?xml version="1.0" encoding="utf-8"?>
<!-- Generator: Adobe Illustrator 19.0.0, SVG Export Plug-In . SVG Version: 6.00 Build 0)  -->
<svg version="1.1" id="Layer_1" xmlns="http://www.w3.org/2000/svg" xmlns:xlink="http://www.w3.org/1999/xlink" x="0px" y="0px"
	 viewBox="-57 180.9 480 480" style="enable-background:new -57 180.9 480 480;" xml:space="preserve">
<style type="text/css">
	.st0{display:none;}
	.st1{display:inline;}
	.st2{fill:url(#XMLID_2_);}
	.st3{fill:url(#SVGID_1_);stroke:#FFFFFF;}
	.st4{display:inline;fill:#EE4323;}
	.st5{fill:#0170BA;}
	.st6{fill:#29A9DF;}
	.st7{fill:#CFCFCF;}
	.st8{fill:#FFFFFF;}
	.st9{display:inline;fill:#0ACF83;}
	.st10{display:inline;fill:#A259FF;}
	.st11{display:inline;fill:#F24E1E;}
	.st12{display:inline;fill:#FF7262;}
	.st13{display:inline;fill:#1ABCFE;}
	.st14{fill:#E34E26;}
	.st15{fill:#EF662A;}
	.st16{fill:#EBEBEB;}
	.st17{display:inline;fill:#F7DF1E;}
	.st18{display:inline;fill:#0868AC;}
	.st19{fill:#61DAFB;}
</style>
<g id="Layer_1_1_" class="st0">
	<g id="XMLID_39_" class="st1">
		
			<linearGradient id="XMLID_2_" gradientUnits="userSpaceOnUse" x1="10.4586" y1="643.8666" x2="387.9722" y2="943.537" gradientTransform="matrix(1 0 0 1 0 -359.89)">
			<stop  offset="0" style="stop-color:#9013FE"/>
			<stop  offset="1" style="stop-color:#6610F2"/>
		</linearGradient>
		<path id="XMLID_38_" class="st2" d="M14.6,293.8c-0.8-23.4,17.4-45,42.1-45h252.6c24.7,0,42.9,21.6,42.1,45
			c-0.8,22.5,0.2,51.6,7.6,75.4c7.4,23.8,19.8,38.9,40.1,40.8v21.9c-20.3,1.9-32.7,17-40.1,40.8c-7.3,23.7-8.3,52.9-7.6,75.4
			c0.8,23.4-17.4,45-42.1,45H56.7c-24.7,0-42.9-21.6-42.1-45c0.8-22.5-0.2-51.6-7.6-75.4c-7.3-23.8-19.7-38.9-40-40.8v-22
			c20.3-1.9,32.7-17,40.1-40.8C14.4,345.4,15.4,316.2,14.6,293.8z"/>
		
			<linearGradient id="SVGID_1_" gradientUnits="userSpaceOnUse" x1="126.6745" y1="703.37" x2="211.0588" y2="846.0823" gradientTransform="matrix(1 0 0 1 0 -359.89)">
			<stop  offset="0" style="stop-color:#FFFFFF"/>
			<stop  offset="1" style="stop-color:#F1E5FC"/>
		</linearGradient>
		<path class="st3" d="M192.4,512.4c39.9,0,64-19.5,64-51.8c0-24.4-17.2-42-42.6-44.8v-1c18.7-3,33.4-20.4,33.4-39.8
			c0-27.7-21.8-45.7-55.1-45.7h-74.9v183.1H192.4z M146.2,352.5H185c21.1,0,33,9.4,33,26.4c0,18.1-13.9,28.3-39.1,28.3h-32.6
			C146.2,407.2,146.2,352.5,146.2,352.5z M146.2,489.2v-60.3h38.5c27.6,0,41.9,10.2,41.9,29.9c0,19.8-13.9,30.3-40.2,30.3h-40.2
			V489.2z"/>
	</g>
</g>
<g id="Layer_2" class="st0">
	<path id="XMLID_40_" class="st4" d="M118.9,636.9c-25.9-11.2-50.1-39.7-50.2-68.8c-0.1-31.7,20-58.7,45.1-76.4
		c-3,11.4-4.6,21.8,2.8,31.9c6.9,9.5,19.1,14,30.5,11.6c26.8-5.9,28-35.3,12.1-52.4c-15.7-17-30.9-36.2-24.9-60.8
		c3-12.3,10.6-23.9,20.2-32.2c-7.4,19.4,13.6,38.5,27.4,48c24,16.5,50.3,29,72.3,48.4c23.2,20.4,40.3,47.9,36.8,79.8
		c-3.7,34.6-31.3,58.7-62.1,70.8c65.2-14.4,132.6-65,133.9-137.3c1.1-59.5-39.7-105.3-90.2-131.5l-2.6-1.4c1.4,3.4,1.8,6.2,1.8,8.8
		c0.5-1.9,0.8-3.8,0.8-5.8c0,2.4-0.3,4.8-0.9,7.1l0.1-1.2c-0.8,3.2-2,6.2-3.7,8.9l0.7-0.8c-10.1,16.7-37.4,20.4-50.9,3
		c-21.7-27.9,0.5-57.9,3.6-87.4c3.9-37-19.3-72.9-48.1-94.3c15.8,25.6-5,59.5-21.7,78.4c-16.2,18.4-35.9,33.7-53.7,50.4
		c-19.2,17.9-37.6,36.8-53.4,57.8C13,433.7-6.3,486.6,7.9,539.2C22,591.6,67.5,625.1,118.9,636.9L118.9,636.9z"/>
</g>
<g id="Layer_3" class="st0">
	<g id="_x23_0170baff" class="st1">
		<path id="XMLID_78_" class="st5" d="M-7.1,206.2c126.7,0,253.3,0,380.1,0c-7,78.9-13.8,157.6-21.1,236.3
			c-4.3,50.4-8.8,100.6-13.5,151c-27,7.1-53.8,15.3-80.9,22.6c-24.8,7.2-49.8,13.9-74.6,21.1h-0.8c-23.7-7-47.5-13.2-71.2-20.2
			c-27.9-7.6-55.5-15.9-83.4-23.4c-3.5-37.7-6.8-75.4-10-113.2C11.4,410.7,4.7,341-1.1,271.3c-2-21-3.4-42-5.9-62.9L-7.1,206.2
			 M183.6,237.2c-0.2,15.1,0.2,30.3-0.2,45.4c-43.5-0.1-87,0-130.5,0c0.8,14.7,2.7,29.2,4.8,43.8c40.5,1.6,81,0,121.3,1.1
			c-35.4,15.9-71.2,30.8-106.8,46.4c-3,1.3-6.3,2.3-9,4.3c0.3,16.1,2.9,32.1,4,48.3c21.6-0.1,43.2-0.4,64.6-0.4
			c17.2-0.1,34.6,0.2,51.8-0.1c-0.8,26.6,0.2,53.2-0.6,79.6c-11.7-1.7-23.1-4.3-34.7-6.3c-9.1-2-18.5-3-27.5-5.7
			c-1.2-12.8-2.1-25.5-3.3-38.3c-2.6-0.8-5.3-0.7-8-0.8c-13,0.1-26.1,0-39.1,0.1c1.2,24.5,3.4,48.9,7.2,73.2
			c12.9,3.3,25.8,6.7,38.6,10.1c19.7,5.3,39.6,9.8,59.4,15.1c2.3,0.6,4.7,1.3,7.1,1.1c1.3,16.1,0.3,32.4,0.6,48.5
			c4.6-0.8,9-1.9,13.5-3.2c37.4-10.1,74.6-20.5,112-30.7c1.9-14.7,2.7-29.5,4.2-44.2c3.9-44.7,7.8-89.4,11.9-134.1
			c4.8-51.2,8.9-102.4,13.7-153.6C286.9,237.2,235.3,237.1,183.6,237.2z"/>
	</g>
	<g id="_x23_29a9dfff" class="st1">
		<path id="XMLID_77_" class="st6" d="M183.6,237.2c51.7-0.1,103.3,0,155-0.1c-4.8,51.2-8.9,102.4-13.7,153.6
			c-4.1,44.7-8,89.4-11.9,134.1c-1.4,14.7-2.3,29.5-4.2,44.2c-37.4,10.2-74.6,20.6-112,30.7c-4.3,1.3-8.9,2.4-13.5,3.2
			c-0.2-16.1,0.8-32.4-0.6-48.5c0.3-0.1,1-0.2,1.3-0.2c34.7-8.7,69.3-18.4,103.9-27.4c4.3-49.2,9.2-98.3,12.3-147.6
			c-29.5,0.1-58.9,0.1-88.4,0.2c-4.3,0-8.6,0-12.9-0.3c15.9-8.1,32.6-14.7,48.8-21.9c15.7-7.1,31.5-13.7,47.2-20.7
			c3-1.4,6.2-2.6,8.9-4.7c1-3.8,1-7.9,1.4-11.8c0.9-12.5,2.6-24.8,3.1-37.3c-41.7-0.3-83.5,0-125.2-0.2
			C183.8,267.4,183.3,252.3,183.6,237.2z"/>
		<path id="XMLID_76_" class="st6" d="M183.8,426c20.1-0.3,40.4,0.2,60.5,0.1c-1.1,20.6-2.9,41.1-3.9,61.8
			c-12.3,4-24.9,7.5-37.4,11.2c-6.7,2-13.5,3.7-19.8,6.6C184,479.2,183,452.6,183.8,426z"/>
	</g>
	<g id="_x23_cfcfcfff" class="st1">
		<path id="XMLID_75_" class="st7" d="M52.9,282.7c43.5,0,87-0.1,130.5,0c0.6,47.8-0.1,95.6,0.4,143.5c-17.2,0.3-34.6,0-51.8,0.1
			c-21.6,0-43.2,0.3-64.6,0.4c-1.1-16.1-3.8-32.1-4-48.3c2.7-2,6-3,9-4.3c35.5-15.6,71.3-30.5,106.8-46.4
			c-40.5-1.2-81,0.3-121.3-1.1C55.7,311.9,53.7,297.4,52.9,282.7z"/>
		<path id="XMLID_74_" class="st7" d="M70.6,454.8c13.1-0.2,26.1-0.1,39.1-0.1c2.7,0,5.4,0,8,0.8c1.1,12.8,2,25.6,3.3,38.3
			c9,2.6,18.4,3.7,27.5,5.7c11.6,2,23,4.7,34.7,6.3c1.1,16.1-0.9,32.4,1,48.5c-0.3,0.1-1,0.2-1.3,0.2c-2.4,0.2-4.8-0.7-7.1-1.1
			c-19.7-5.2-39.7-9.8-59.4-15.1c-12.9-3.4-25.8-6.8-38.6-10.1C74,503.8,71.8,479.3,70.6,454.8z"/>
	</g>
	<g id="_x23_ffffffff" class="st1">
		<path id="XMLID_73_" class="st8" d="M183.3,282.6c41.7,0.2,83.5-0.1,125.2,0.2c-0.6,12.5-2.2,24.9-3.1,37.3
			c-0.4,3.9-0.3,7.9-1.4,11.8c-2.7,2.1-5.9,3.2-8.9,4.7c-15.7,7-31.5,13.6-47.2,20.7c-16.2,7.3-32.9,13.8-48.8,21.9
			c4.2,0.3,8.6,0.3,12.9,0.3c29.5-0.1,58.9,0,88.4-0.2c-3.1,49.3-7.9,98.4-12.3,147.6c-34.7,9-69.2,18.7-103.9,27.4
			c-1.9-16.1,0.1-32.4-1-48.5c6.3-3,13.1-4.6,19.8-6.6c12.5-3.8,25-7.1,37.4-11.2c1.1-20.6,2.8-41.1,3.9-61.8
			c-20.1,0.1-40.4-0.4-60.5-0.1C183.1,378.2,183.9,330.4,183.3,282.6z"/>
	</g>
</g>
<g id="Layer_4" class="st0">
	<path id="path0_fill" class="st9" d="M111.1,636.6c39.7,0,71.9-32.2,71.9-71.9v-71.9h-71.9c-39.7,0-71.9,32.2-71.9,71.9
		C39.2,604.4,71.4,636.6,111.1,636.6z"/>
	<path id="path1_fill" class="st10" d="M39.2,420.9c0-39.7,32.2-71.9,71.9-71.9H183v143.8h-71.9C71.4,492.8,39.2,460.6,39.2,420.9z"
		/>
	<path id="path1_fill_1_" class="st11" d="M39.2,277.1c0-39.7,32.2-71.9,71.9-71.9H183V349h-71.9C71.4,349,39.2,316.8,39.2,277.1z"
		/>
	<path id="path2_fill" class="st12" d="M183,205.2h71.9c39.7,0,71.9,32.2,71.9,71.9S294.6,349,254.9,349H183V205.2z"/>
	<path id="path3_fill" class="st13" d="M326.8,420.9c0,39.7-32.2,71.9-71.9,71.9S183,460.6,183,420.9s32.2-71.9,71.9-71.9
		S326.8,381.2,326.8,420.9z"/>
</g>
<g id="Layer_5" class="st0">
	<g id="Guides_to_delete" class="st1">
		<g id="XMLID_86_">
			<polygon id="XMLID_84_" class="st14" points="27.4,593.6 -7.2,205 373.2,205 338.6,593.6 182.9,636.8 			"/>
			<polygon id="XMLID_83_" class="st15" points="183,236.8 183,603.8 308.9,568.9 338.5,236.8 			"/>
			<polygon id="XMLID_82_" class="st8" points="63.6,284.5 76.5,428.6 241.7,428.6 236.1,490.4 182.9,504.8 129.9,490.4 
				126.3,450.7 78.5,450.7 85.3,527.2 182.9,554.3 280.7,527.2 293.8,380.9 120.1,380.9 115.7,332.1 297.9,332.1 298.1,332.1 
				302.4,284.5 			"/>
			<g id="XMLID_87_">
				<polygon id="XMLID_81_" class="st16" points="183,284.5 63.6,284.5 76.5,428.6 183,428.6 183,380.9 120.1,380.9 115.7,332.1 
					183,332.1 				"/>
				<polygon id="XMLID_72_" class="st16" points="183,504.7 182.9,504.8 129.9,490.4 126.3,450.7 78.5,450.7 85.3,527.2 
					182.9,554.3 183,554.3 				"/>
			</g>
		</g>
	</g>
</g>
<g id="Layer_6" class="st0">
	<rect id="XMLID_89_" x="-32.7" y="205.2" class="st17" width="431.3" height="431.3"/>
	<path id="XMLID_91_" class="st1" d="M257.1,542.2c8.7,14.2,20,24.6,40,24.6c16.8,0,27.5-8.4,27.5-20c0-13.9-11-18.8-29.5-26.9
		l-10.1-4.3c-29.2-12.5-48.7-28.1-48.7-61.1c0-30.4,23.2-53.5,59.4-53.5c25.8,0,44.3,9,57.6,32.5l-31.6,20.3
		c-6.9-12.5-14.4-17.4-26.1-17.4c-11.9,0-19.4,7.5-19.4,17.4c0,12.2,7.5,17.1,24.9,24.6l10.1,4.3c34.4,14.8,53.9,29.8,53.9,63.7
		c0,36.5-28.7,56.5-67.2,56.5c-37.6,0-62-17.9-73.9-41.4L257.1,542.2z M113.9,545.7c6.4,11.3,12.2,20.8,26.1,20.8
		c13.3,0,21.7-5.2,21.7-25.5V403.3h40.5v138.4c0,42-24.6,61.1-60.5,61.1c-32.5,0-51.2-16.8-60.8-37L113.9,545.7z"/>
</g>
<g id="Layer_7" class="st0">
	<path id="XMLID_95_" class="st18" d="M-5.3,310.6c-38.1,54.9-33.4,126.3-4.2,184.8c0.7,1.4,1.4,2.8,2.1,4.2l1.3,2.6
		c0.3,0.5,0.6,1,0.8,1.5c0.5,0.9,1,1.8,1.5,2.7l2.8,4.8l1.6,2.6l3.2,5.1l1.4,2.1c1.5,2.3,3.1,4.5,4.7,6.7l0.9,1.2
		c1.4,1.9,2.8,3.8,4.3,5.7l1.6,2l3.9,4.9l1.5,1.8c1.8,2.1,3.6,4.2,5.5,6.3c0.2,0.2,0.3,0.3,0.3,0.4c1.8,2,3.7,3.9,5.6,5.9l1.8,1.8
		l4.5,4.4l1.8,1.8c2,1.9,4,3.7,6.1,5.6l6.7,5.7l2.3,1.8l4.6,3.6l2.5,1.9l5.2,3.7l2.4,1.7c1.7,1.1,3.3,2.2,5,3.3l2.2,1.5
		c2.6,1.7,5.2,3.3,7.9,4.8l2.2,1.3l5.9,3.3c1.1,0.6,2.2,1.1,3.3,1.7l4.2,2.2l1,0.5l1.8,0.8l6.7,3.1l1.4,0.6c2.6,1.1,5.2,2.2,7.8,3.3
		l1.9,0.8l7.4,2.7l0.9,0.3c2.7,0.9,5.5,1.8,8.2,2.7l2,0.6c2.7,0.8,5.6,1.9,8.5,2.4c184.7,33.7,238.3-111,238.3-111
		c-45,58.7-125,74.2-200.9,56.9c-2.9-0.6-5.7-1.5-8.5-2.4l-2.1-0.6c-2.7-0.8-5.4-1.7-8.1-2.7l-1.1-0.4c-2.4-0.9-4.8-1.7-7.2-2.7
		l-2-0.8c-2.6-1-5.2-2.1-7.8-3.2l-1.6-0.7l-6.5-3l-1.9-0.9c-1.7-0.8-3.4-1.7-5.1-2.7l-3.4-1.8c-2-1.1-4-2.2-6.1-3.4l-2-1.1
		c-2.7-1.6-5.3-3.2-7.9-4.8c-0.7-0.5-1.4-0.9-2.1-1.4l-5.6-3.7c-0.6-0.4-1.3-0.9-1.8-1.3l-5.3-3.8l-2.4-1.8l-4.8-3.7l-2.1-1.7l-6-5
		c-0.2-0.2-0.4-0.4-0.7-0.5l-6.3-5.7l-1.8-1.7l-4.5-4.5l-1.8-1.8c-1.9-1.9-3.7-3.9-5.4-5.9c-0.1-0.1-0.2-0.2-0.3-0.3
		c-1.9-2.1-3.8-4.2-5.6-6.4l-1.3-1.8l-4-5l-1.3-1.8l-4.7-6.2C6,417.1-9.1,337.8,24.5,272.8 M113.3,264.4
		c-27.6,39.7-26.1,93.1-4.6,135c3.6,7.1,7.7,13.9,12.2,20.4c4.1,5.9,8.7,13,14.2,17.7c2,2.2,4.1,4.3,6.2,6.4l1.6,1.6
		c2.1,2,4.2,4,6.3,5.9c0.1,0.1,0.2,0.2,0.3,0.2c2.5,2.2,4.9,4,7.5,6.2l1.7,1.3c2.5,2,5.1,3.8,7.7,5.7l0.2,0.2
		c1.2,0.8,2.3,1.6,3.5,2.3c0.6,0.4,1.1,0.8,1.7,1.1c1.9,1.2,3.8,2.4,5.7,3.5l0.8,0.5l5.1,2.7c0.6,0.3,1.3,0.6,1.8,0.9l3.5,1.8
		c0.2,0.1,0.4,0.2,0.5,0.2c2.4,1.2,4.9,2.4,7.4,3.4l1.6,0.7c2,0.9,4,1.7,6.1,2.5l2.6,0.9c1.8,0.7,3.7,1.3,5.6,1.9l2.5,0.8
		c2.7,0.8,5.4,1.9,8.1,2.3c142.6,23.6,175.5-86.3,175.5-86.3c-29.7,42.8-87.1,63.1-148.5,47.2c-2.7-0.7-5.4-1.5-8.1-2.3
		c-0.8-0.2-1.6-0.5-2.4-0.8l-5.7-1.9l-2.7-0.9c-2-0.8-4.1-1.6-6.1-2.5l-1.6-0.7c-2.5-1.1-5-2.2-7.4-3.5l-3.7-1.9l-2.2-1.1
		c-1.6-0.9-3.2-1.7-4.7-2.7l-1.1-0.6c-1.9-1.1-3.8-2.3-5.7-3.5c-0.6-0.4-1.1-0.8-1.7-1.1l-3.7-2.5c-2.6-1.8-5.2-3.7-7.7-5.6
		l-1.8-1.3c-27-21.2-48.1-50.2-58.2-83c-10.6-34.1-8.3-72.3,10-103.3 M213,229.8c-16.3,24.1-17.9,53.7-6.6,80.2
		c11.9,28.1,36.3,50.1,64.8,60.7l3.5,1.3l1.6,0.5l5.1,1.3c78.7,15.2,100.1-40.4,105.8-48.6c-18.7,26.9-50.1,33.4-88.7,24
		c-3-0.7-6.4-1.8-9.3-2.9c-3.8-1.3-7.5-2.9-11.1-4.6c-6.9-3.3-13.4-7.3-19.4-11.9c-34.5-26.2-56-76.3-33.4-116.9"/>
</g>
<g>
	<circle class="st19" cx="183" cy="420.9" r="38.5"/>
	<path class="st19" d="M399,420.9c0-30.3-35.6-56.5-90.8-72.3c13.9-55.7,9-99.6-17.2-114.8c-26.2-15.2-66.7,2.6-108,42.5
		c-41.3-39.9-81.8-57.6-108-42.5c-26.2,15.1-31.1,59-17.2,114.8C2.6,364.4-33,390.6-33,420.9c0,30.2,35.5,56.4,90.7,72.3
		c-2.2,8.5-4,16.9-5.3,24.9c-7.3,45.4,0.8,77.3,22.6,89.9c6.3,3.6,13.4,5.4,21.2,5.4c24.5,0,55.4-17.5,86.8-47.9
		c31.4,30.3,62.3,47.9,86.8,47.9c7.8,0,14.9-1.8,21.2-5.4c21.9-12.6,29.9-44.6,22.6-89.9c-1.3-8-3.2-16.4-5.3-24.9
		C363.5,477.3,399,451.1,399,420.9z M281.6,250.1c17,9.8,20.6,45.4,8.5,93.8c-17.7-4-37-7.1-57.4-9c-11.9-16.8-24.2-32-36.5-45.3
		c28.5-27.6,55-42.6,73.2-42.6C274,247.1,278.1,248.1,281.6,250.1z M243.2,455.6c-6.8,11.8-13.8,22.8-20.9,33.3
		c-12.6,0.9-25.7,1.5-39.3,1.5s-26.7-0.5-39.3-1.5c-7.1-10.4-14.1-21.5-20.9-33.3c-6.8-11.8-12.9-23.4-18.4-34.8
		c5.6-11.5,11.7-23.2,18.4-34.7c6.8-11.8,13.8-22.8,20.9-33.3c12.6-0.9,25.7-1.5,39.3-1.5s26.7,0.5,39.3,1.5
		c7.1,10.4,14.1,21.5,20.9,33.3c6.7,11.5,12.8,23.2,18.4,34.7C256.1,432.2,250,443.8,243.2,455.6z M271.5,443
		c5.3,12.5,9.8,24.8,13.5,36.8c-12,2.7-24.9,5-38.7,6.8c4.5-7,8.9-14.1,13.1-21.5C263.7,457.6,267.7,450.3,271.5,443z M183,538.7
		c-8.3-9-16.8-19-25.2-30.1c8.3,0.4,16.6,0.6,25.1,0.6c8.5,0,16.9-0.2,25.2-0.6C199.8,519.6,191.3,529.6,183,538.7z M119.7,486.5
		c-13.8-1.7-26.7-4-38.7-6.8c3.8-12,8.3-24.3,13.5-36.8c3.8,7.3,7.8,14.7,12,22.1C110.8,472.4,115.2,479.5,119.7,486.5z M94.5,398.9
		c-5.4-12.8-9.8-25.1-13.5-36.8c12-2.7,24.9-5,38.6-6.7c-4.5,7-8.8,14.1-13.1,21.5C102.3,384.1,98.3,391.5,94.5,398.9z M183,303
		c8.3,9,16.7,19.2,25.1,30.2c-8.2-0.4-16.6-0.6-25.1-0.6c-8.5,0-16.9,0.2-25.1,0.6C166.3,322.2,174.7,312,183,303z M259.5,376.7
		c-4.3-7.4-8.7-14.5-13.1-21.5c13.8,1.7,26.6,4,38.6,6.7c-3.7,11.8-8.1,24.1-13.5,36.8C267.7,391.5,263.7,384.1,259.5,376.7z
		 M84.4,250.1c3.5-2,7.6-3,12.3-3c18.2,0,44.7,15,73.2,42.6c-12.4,13.3-24.6,28.5-36.5,45.3c-20.5,1.9-39.8,4.9-57.4,9
		C63.8,295.5,67.4,259.9,84.4,250.1z M-14.2,420.9c0-19.6,29-40.5,77-54.2c5.3,17.3,12.4,35.6,20.9,54.2
		c-8.5,18.4-15.5,36.7-21,54.2C14.8,461.4-14.2,440.5-14.2,420.9z M84.4,591.7C70,583.4,65.1,557.6,70.9,521
		c1.2-7.5,2.9-15.2,4.9-23.2c17.7,4.1,37,7.1,57.5,9c11.9,16.8,24.1,32,36.5,45.3C134,586.8,101.4,601.5,84.4,591.7z M295.1,521
		c5.9,36.6,1,62.4-13.5,70.7c-17,9.8-49.6-4.9-85.5-39.6c12.3-13.3,24.6-28.5,36.5-45.3c20.5-1.9,39.8-4.9,57.5-9
		C292.1,505.8,293.9,513.5,295.1,521z M303.2,475.1c-5.5-17.6-12.5-35.8-21-54.2c8.6-18.7,15.6-36.9,20.9-54.2
		c48,13.7,77,34.6,77,54.2C380.2,440.5,351.2,461.4,303.2,475.1z"/>
</g>
</svg>
