<?xml version="1.0" encoding="utf-8"?>
<!-- Generator: Adobe Illustrator 19.0.0, SVG Export Plug-In . SVG Version: 6.00 Build 0)  -->
<svg version="1.1" id="Layer_1" xmlns="http://www.w3.org/2000/svg" xmlns:xlink="http://www.w3.org/1999/xlink" x="0px" y="0px"
	 viewBox="-57 180.9 480 480" style="enable-background:new -57 180.9 480 480;" xml:space="preserve">
<style type="text/css">
	.st0{display:none;}
	.st1{display:inline;}
	.st2{fill:url(#XMLID_2_);}
	.st3{fill:url(#SVGID_1_);stroke:#FFFFFF;}
	.st4{display:inline;fill:#EE4323;}
	.st5{fill:#0170BA;}
	.st6{fill:#29A9DF;}
	.st7{fill:#CFCFCF;}
	.st8{fill:#FFFFFF;}
	.st9{display:inline;fill:#0ACF83;}
	.st10{display:inline;fill:#A259FF;}
	.st11{display:inline;fill:#F24E1E;}
	.st12{display:inline;fill:#FF7262;}
	.st13{display:inline;fill:#1ABCFE;}
	.st14{fill:#E34E26;}
	.st15{fill:#EF662A;}
	.st16{fill:#EBEBEB;}
	.st17{display:inline;fill:#F7DF1E;}
	.st18{display:inline;fill:#0868AC;}
	.st19{display:inline;fill:#FF2D20;}
	.st20{display:inline;fill:#00758F;}
	.st21{fill:#F29111;}
	.st22{fill:#00758F;}
	.st23{clip-path:url(#SVGID_3_);}
	.st24{fill:url(#path3462_1_);}
	.st25{clip-path:url(#SVGID_5_);}
	.st26{fill:#777BB3;}
	.st27{clip-path:url(#SVGID_7_);}
	.st28{display:inline;fill:#CD6799;}
	.st29{fill:url(#SVGID_8_);}
</style>
<g id="Layer_1_1_" class="st0">
	<g id="XMLID_39_" class="st1">
		
			<linearGradient id="XMLID_2_" gradientUnits="userSpaceOnUse" x1="10.4586" y1="643.8666" x2="387.9722" y2="943.537" gradientTransform="matrix(1 0 0 1 0 -359.89)">
			<stop  offset="0" style="stop-color:#9013FE"/>
			<stop  offset="1" style="stop-color:#6610F2"/>
		</linearGradient>
		<path id="XMLID_38_" class="st2" d="M14.6,293.8c-0.8-23.4,17.4-45,42.1-45h252.6c24.7,0,42.9,21.6,42.1,45
			c-0.8,22.5,0.2,51.6,7.6,75.4c7.4,23.8,19.8,38.9,40.1,40.8v21.9c-20.3,1.9-32.7,17-40.1,40.8c-7.3,23.7-8.3,52.9-7.6,75.4
			c0.8,23.4-17.4,45-42.1,45H56.7c-24.7,0-42.9-21.6-42.1-45c0.8-22.5-0.2-51.6-7.6-75.4c-7.3-23.8-19.7-38.9-40-40.8v-22
			c20.3-1.9,32.7-17,40.1-40.8C14.4,345.4,15.4,316.2,14.6,293.8z"/>
		
			<linearGradient id="SVGID_1_" gradientUnits="userSpaceOnUse" x1="126.6745" y1="703.37" x2="211.0588" y2="846.0823" gradientTransform="matrix(1 0 0 1 0 -359.89)">
			<stop  offset="0" style="stop-color:#FFFFFF"/>
			<stop  offset="1" style="stop-color:#F1E5FC"/>
		</linearGradient>
		<path class="st3" d="M192.4,512.4c39.9,0,64-19.5,64-51.8c0-24.4-17.2-42-42.6-44.8v-1c18.7-3,33.4-20.4,33.4-39.8
			c0-27.7-21.8-45.7-55.1-45.7h-74.9v183.1H192.4z M146.2,352.5H185c21.1,0,33,9.4,33,26.4c0,18.1-13.9,28.3-39.1,28.3h-32.6
			C146.2,407.2,146.2,352.5,146.2,352.5z M146.2,489.2v-60.3h38.5c27.6,0,41.9,10.2,41.9,29.9c0,19.8-13.9,30.3-40.2,30.3h-40.2
			V489.2z"/>
	</g>
</g>
<g id="Layer_2" class="st0">
	<path id="XMLID_40_" class="st4" d="M118.9,636.9c-25.9-11.2-50.1-39.7-50.2-68.8c-0.1-31.7,20-58.7,45.1-76.4
		c-3,11.4-4.6,21.8,2.8,31.9c6.9,9.5,19.1,14,30.5,11.6c26.8-5.9,28-35.3,12.1-52.4c-15.7-17-30.9-36.2-24.9-60.8
		c3-12.3,10.6-23.9,20.2-32.2c-7.4,19.4,13.6,38.5,27.4,48c24,16.5,50.3,29,72.3,48.4c23.2,20.4,40.3,47.9,36.8,79.8
		c-3.7,34.6-31.3,58.7-62.1,70.8c65.2-14.4,132.6-65,133.9-137.3c1.1-59.5-39.7-105.3-90.2-131.5l-2.6-1.4c1.4,3.4,1.8,6.2,1.8,8.8
		c0.5-1.9,0.8-3.8,0.8-5.8c0,2.4-0.3,4.8-0.9,7.1l0.1-1.2c-0.8,3.2-2,6.2-3.7,8.9l0.7-0.8c-10.1,16.7-37.4,20.4-50.9,3
		c-21.7-27.9,0.5-57.9,3.6-87.4c3.9-37-19.3-72.9-48.1-94.3c15.8,25.6-5,59.5-21.7,78.4c-16.2,18.4-35.9,33.7-53.7,50.4
		c-19.2,17.9-37.6,36.8-53.4,57.8C13,433.7-6.3,486.6,7.9,539.2C22,591.6,67.5,625.1,118.9,636.9L118.9,636.9z"/>
</g>
<g id="Layer_3" class="st0">
	<g id="_x23_0170baff" class="st1">
		<path id="XMLID_78_" class="st5" d="M-7.1,206.2c126.7,0,253.3,0,380.1,0c-7,78.9-13.8,157.6-21.1,236.3
			c-4.3,50.4-8.8,100.6-13.5,151c-27,7.1-53.8,15.3-80.9,22.6c-24.8,7.2-49.8,13.9-74.6,21.1h-0.8c-23.7-7-47.5-13.2-71.2-20.2
			c-27.9-7.6-55.5-15.9-83.4-23.4c-3.5-37.7-6.8-75.4-10-113.2C11.4,410.7,4.7,341-1.1,271.3c-2-21-3.4-42-5.9-62.9L-7.1,206.2
			 M183.6,237.2c-0.2,15.1,0.2,30.3-0.2,45.4c-43.5-0.1-87,0-130.5,0c0.8,14.7,2.7,29.2,4.8,43.8c40.5,1.6,81,0,121.3,1.1
			c-35.4,15.9-71.2,30.8-106.8,46.4c-3,1.3-6.3,2.3-9,4.3c0.3,16.1,2.9,32.1,4,48.3c21.6-0.1,43.2-0.4,64.6-0.4
			c17.2-0.1,34.6,0.2,51.8-0.1c-0.8,26.6,0.2,53.2-0.6,79.6c-11.7-1.7-23.1-4.3-34.7-6.3c-9.1-2-18.5-3-27.5-5.7
			c-1.2-12.8-2.1-25.5-3.3-38.3c-2.6-0.8-5.3-0.7-8-0.8c-13,0.1-26.1,0-39.1,0.1c1.2,24.5,3.4,48.9,7.2,73.2
			c12.9,3.3,25.8,6.7,38.6,10.1c19.7,5.3,39.6,9.8,59.4,15.1c2.3,0.6,4.7,1.3,7.1,1.1c1.3,16.1,0.3,32.4,0.6,48.5
			c4.6-0.8,9-1.9,13.5-3.2c37.4-10.1,74.6-20.5,112-30.7c1.9-14.7,2.7-29.5,4.2-44.2c3.9-44.7,7.8-89.4,11.9-134.1
			c4.8-51.2,8.9-102.4,13.7-153.6C286.9,237.2,235.3,237.1,183.6,237.2z"/>
	</g>
	<g id="_x23_29a9dfff" class="st1">
		<path id="XMLID_77_" class="st6" d="M183.6,237.2c51.7-0.1,103.3,0,155-0.1c-4.8,51.2-8.9,102.4-13.7,153.6
			c-4.1,44.7-8,89.4-11.9,134.1c-1.4,14.7-2.3,29.5-4.2,44.2c-37.4,10.2-74.6,20.6-112,30.7c-4.3,1.3-8.9,2.4-13.5,3.2
			c-0.2-16.1,0.8-32.4-0.6-48.5c0.3-0.1,1-0.2,1.3-0.2c34.7-8.7,69.3-18.4,103.9-27.4c4.3-49.2,9.2-98.3,12.3-147.6
			c-29.5,0.1-58.9,0.1-88.4,0.2c-4.3,0-8.6,0-12.9-0.3c15.9-8.1,32.6-14.7,48.8-21.9c15.7-7.1,31.5-13.7,47.2-20.7
			c3-1.4,6.2-2.6,8.9-4.7c1-3.8,1-7.9,1.4-11.8c0.9-12.5,2.6-24.8,3.1-37.3c-41.7-0.3-83.5,0-125.2-0.2
			C183.8,267.4,183.3,252.3,183.6,237.2z"/>
		<path id="XMLID_76_" class="st6" d="M183.8,426c20.1-0.3,40.4,0.2,60.5,0.1c-1.1,20.6-2.9,41.1-3.9,61.8
			c-12.3,4-24.9,7.5-37.4,11.2c-6.7,2-13.5,3.7-19.8,6.6C184,479.2,183,452.6,183.8,426z"/>
	</g>
	<g id="_x23_cfcfcfff" class="st1">
		<path id="XMLID_75_" class="st7" d="M52.9,282.7c43.5,0,87-0.1,130.5,0c0.6,47.8-0.1,95.6,0.4,143.5c-17.2,0.3-34.6,0-51.8,0.1
			c-21.6,0-43.2,0.3-64.6,0.4c-1.1-16.1-3.8-32.1-4-48.3c2.7-2,6-3,9-4.3c35.5-15.6,71.3-30.5,106.8-46.4
			c-40.5-1.2-81,0.3-121.3-1.1C55.7,311.9,53.7,297.4,52.9,282.7z"/>
		<path id="XMLID_74_" class="st7" d="M70.6,454.8c13.1-0.2,26.1-0.1,39.1-0.1c2.7,0,5.4,0,8,0.8c1.1,12.8,2,25.6,3.3,38.3
			c9,2.6,18.4,3.7,27.5,5.7c11.6,2,23,4.7,34.7,6.3c1.1,16.1-0.9,32.4,1,48.5c-0.3,0.1-1,0.2-1.3,0.2c-2.4,0.2-4.8-0.7-7.1-1.1
			c-19.7-5.2-39.7-9.8-59.4-15.1c-12.9-3.4-25.8-6.8-38.6-10.1C74,503.8,71.8,479.3,70.6,454.8z"/>
	</g>
	<g id="_x23_ffffffff" class="st1">
		<path id="XMLID_73_" class="st8" d="M183.3,282.6c41.7,0.2,83.5-0.1,125.2,0.2c-0.6,12.5-2.2,24.9-3.1,37.3
			c-0.4,3.9-0.3,7.9-1.4,11.8c-2.7,2.1-5.9,3.2-8.9,4.7c-15.7,7-31.5,13.6-47.2,20.7c-16.2,7.3-32.9,13.8-48.8,21.9
			c4.2,0.3,8.6,0.3,12.9,0.3c29.5-0.1,58.9,0,88.4-0.2c-3.1,49.3-7.9,98.4-12.3,147.6c-34.7,9-69.2,18.7-103.9,27.4
			c-1.9-16.1,0.1-32.4-1-48.5c6.3-3,13.1-4.6,19.8-6.6c12.5-3.8,25-7.1,37.4-11.2c1.1-20.6,2.8-41.1,3.9-61.8
			c-20.1,0.1-40.4-0.4-60.5-0.1C183.1,378.2,183.9,330.4,183.3,282.6z"/>
	</g>
</g>
<g id="Layer_4" class="st0">
	<path id="path0_fill" class="st9" d="M111.1,636.6c39.7,0,71.9-32.2,71.9-71.9v-71.9h-71.9c-39.7,0-71.9,32.2-71.9,71.9
		C39.2,604.4,71.4,636.6,111.1,636.6z"/>
	<path id="path1_fill" class="st10" d="M39.2,420.9c0-39.7,32.2-71.9,71.9-71.9H183v143.8h-71.9C71.4,492.8,39.2,460.6,39.2,420.9z"
		/>
	<path id="path1_fill_1_" class="st11" d="M39.2,277.1c0-39.7,32.2-71.9,71.9-71.9H183V349h-71.9C71.4,349,39.2,316.8,39.2,277.1z"
		/>
	<path id="path2_fill" class="st12" d="M183,205.2h71.9c39.7,0,71.9,32.2,71.9,71.9S294.6,349,254.9,349H183V205.2z"/>
	<path id="path3_fill" class="st13" d="M326.8,420.9c0,39.7-32.2,71.9-71.9,71.9S183,460.6,183,420.9s32.2-71.9,71.9-71.9
		S326.8,381.2,326.8,420.9z"/>
</g>
<g id="Layer_5" class="st0">
	<g id="Guides_to_delete" class="st1">
		<g id="XMLID_86_">
			<polygon id="XMLID_84_" class="st14" points="27.4,593.6 -7.2,205 373.2,205 338.6,593.6 182.9,636.8 			"/>
			<polygon id="XMLID_83_" class="st15" points="183,236.8 183,603.8 308.9,568.9 338.5,236.8 			"/>
			<polygon id="XMLID_82_" class="st8" points="63.6,284.5 76.5,428.6 241.7,428.6 236.1,490.4 182.9,504.8 129.9,490.4 
				126.3,450.7 78.5,450.7 85.3,527.2 182.9,554.3 280.7,527.2 293.8,380.9 120.1,380.9 115.7,332.1 297.9,332.1 298.1,332.1 
				302.4,284.5 			"/>
			<g id="XMLID_87_">
				<polygon id="XMLID_81_" class="st16" points="183,284.5 63.6,284.5 76.5,428.6 183,428.6 183,380.9 120.1,380.9 115.7,332.1 
					183,332.1 				"/>
				<polygon id="XMLID_72_" class="st16" points="183,504.7 182.9,504.8 129.9,490.4 126.3,450.7 78.5,450.7 85.3,527.2 
					182.9,554.3 183,554.3 				"/>
			</g>
		</g>
	</g>
</g>
<g id="Layer_6" class="st0">
	<rect id="XMLID_89_" x="-32.7" y="205.2" class="st17" width="431.3" height="431.3"/>
	<path id="XMLID_91_" class="st1" d="M257.1,542.2c8.7,14.2,20,24.6,40,24.6c16.8,0,27.5-8.4,27.5-20c0-13.9-11-18.8-29.5-26.9
		l-10.1-4.3c-29.2-12.5-48.7-28.1-48.7-61.1c0-30.4,23.2-53.5,59.4-53.5c25.8,0,44.3,9,57.6,32.5l-31.6,20.3
		c-6.9-12.5-14.4-17.4-26.1-17.4c-11.9,0-19.4,7.5-19.4,17.4c0,12.2,7.5,17.1,24.9,24.6l10.1,4.3c34.4,14.8,53.9,29.8,53.9,63.7
		c0,36.5-28.7,56.5-67.2,56.5c-37.6,0-62-17.9-73.9-41.4L257.1,542.2z M113.9,545.7c6.4,11.3,12.2,20.8,26.1,20.8
		c13.3,0,21.7-5.2,21.7-25.5V403.3h40.5v138.4c0,42-24.6,61.1-60.5,61.1c-32.5,0-51.2-16.8-60.8-37L113.9,545.7z"/>
</g>
<g id="Layer_7" class="st0">
	<path id="XMLID_95_" class="st18" d="M-5.3,310.6c-38.1,54.9-33.4,126.3-4.2,184.8c0.7,1.4,1.4,2.8,2.1,4.2l1.3,2.6
		c0.3,0.5,0.6,1,0.8,1.5c0.5,0.9,1,1.8,1.5,2.7l2.8,4.8l1.6,2.6l3.2,5.1l1.4,2.1c1.5,2.3,3.1,4.5,4.7,6.7l0.9,1.2
		c1.4,1.9,2.8,3.8,4.3,5.7l1.6,2l3.9,4.9l1.5,1.8c1.8,2.1,3.6,4.2,5.5,6.3c0.2,0.2,0.3,0.3,0.3,0.4c1.8,2,3.7,3.9,5.6,5.9l1.8,1.8
		l4.5,4.4l1.8,1.8c2,1.9,4,3.7,6.1,5.6l6.7,5.7l2.3,1.8l4.6,3.6l2.5,1.9l5.2,3.7l2.4,1.7c1.7,1.1,3.3,2.2,5,3.3l2.2,1.5
		c2.6,1.7,5.2,3.3,7.9,4.8l2.2,1.3l5.9,3.3c1.1,0.6,2.2,1.1,3.3,1.7l4.2,2.2l1,0.5l1.8,0.8l6.7,3.1l1.4,0.6c2.6,1.1,5.2,2.2,7.8,3.3
		l1.9,0.8l7.4,2.7l0.9,0.3c2.7,0.9,5.5,1.8,8.2,2.7l2,0.6c2.7,0.8,5.6,1.9,8.5,2.4c184.7,33.7,238.3-111,238.3-111
		c-45,58.7-125,74.2-200.9,56.9c-2.9-0.6-5.7-1.5-8.5-2.4l-2.1-0.6c-2.7-0.8-5.4-1.7-8.1-2.7l-1.1-0.4c-2.4-0.9-4.8-1.7-7.2-2.7
		l-2-0.8c-2.6-1-5.2-2.1-7.8-3.2l-1.6-0.7l-6.5-3l-1.9-0.9c-1.7-0.8-3.4-1.7-5.1-2.7l-3.4-1.8c-2-1.1-4-2.2-6.1-3.4l-2-1.1
		c-2.7-1.6-5.3-3.2-7.9-4.8c-0.7-0.5-1.4-0.9-2.1-1.4l-5.6-3.7c-0.6-0.4-1.3-0.9-1.8-1.3l-5.3-3.8l-2.4-1.8l-4.8-3.7l-2.1-1.7l-6-5
		c-0.2-0.2-0.4-0.4-0.7-0.5l-6.3-5.7l-1.8-1.7l-4.5-4.5l-1.8-1.8c-1.9-1.9-3.7-3.9-5.4-5.9c-0.1-0.1-0.2-0.2-0.3-0.3
		c-1.9-2.1-3.8-4.2-5.6-6.4l-1.3-1.8l-4-5l-1.3-1.8l-4.7-6.2C6,417.1-9.1,337.8,24.5,272.8 M113.3,264.4
		c-27.6,39.7-26.1,93.1-4.6,135c3.6,7.1,7.7,13.9,12.2,20.4c4.1,5.9,8.7,13,14.2,17.7c2,2.2,4.1,4.3,6.2,6.4l1.6,1.6
		c2.1,2,4.2,4,6.3,5.9c0.1,0.1,0.2,0.2,0.3,0.2c2.5,2.2,4.9,4,7.5,6.2l1.7,1.3c2.5,2,5.1,3.8,7.7,5.7l0.2,0.2
		c1.2,0.8,2.3,1.6,3.5,2.3c0.6,0.4,1.1,0.8,1.7,1.1c1.9,1.2,3.8,2.4,5.7,3.5l0.8,0.5l5.1,2.7c0.6,0.3,1.3,0.6,1.8,0.9l3.5,1.8
		c0.2,0.1,0.4,0.2,0.5,0.2c2.4,1.2,4.9,2.4,7.4,3.4l1.6,0.7c2,0.9,4,1.7,6.1,2.5l2.6,0.9c1.8,0.7,3.7,1.3,5.6,1.9l2.5,0.8
		c2.7,0.8,5.4,1.9,8.1,2.3c142.6,23.6,175.5-86.3,175.5-86.3c-29.7,42.8-87.1,63.1-148.5,47.2c-2.7-0.7-5.4-1.5-8.1-2.3
		c-0.8-0.2-1.6-0.5-2.4-0.8l-5.7-1.9l-2.7-0.9c-2-0.8-4.1-1.6-6.1-2.5l-1.6-0.7c-2.5-1.1-5-2.2-7.4-3.5l-3.7-1.9l-2.2-1.1
		c-1.6-0.9-3.2-1.7-4.7-2.7l-1.1-0.6c-1.9-1.1-3.8-2.3-5.7-3.5c-0.6-0.4-1.1-0.8-1.7-1.1l-3.7-2.5c-2.6-1.8-5.2-3.7-7.7-5.6
		l-1.8-1.3c-27-21.2-48.1-50.2-58.2-83c-10.6-34.1-8.3-72.3,10-103.3 M213,229.8c-16.3,24.1-17.9,53.7-6.6,80.2
		c11.9,28.1,36.3,50.1,64.8,60.7l3.5,1.3l1.6,0.5l5.1,1.3c78.7,15.2,100.1-40.4,105.8-48.6c-18.7,26.9-50.1,33.4-88.7,24
		c-3-0.7-6.4-1.8-9.3-2.9c-3.8-1.3-7.5-2.9-11.1-4.6c-6.9-3.3-13.4-7.3-19.4-11.9c-34.5-26.2-56-76.3-33.4-116.9"/>
</g>
<g id="Layer_8" class="st0">
	<path id="XMLID_105_" class="st19" d="M392.4,302.7c0.2,0.6,0.2,1.2,0.2,1.8v92.7c0,2.4-1.3,4.7-3.4,5.9l-77.8,44.8v88.7
		c0,2.4-1.3,4.6-3.4,5.9L145.7,636c-0.4,0.2-0.8,0.3-1.2,0.5c-0.2,0.1-0.3,0.1-0.5,0.2c-1.1,0.3-2.3,0.3-3.5,0
		c-0.2-0.1-0.4-0.2-0.5-0.2c-0.4-0.1-0.8-0.3-1.1-0.5l-162.2-93.6c-2.1-1.2-3.4-3.4-3.4-5.9v-278c0-0.6,0.1-1.2,0.2-1.8
		c0.1-0.2,0.2-0.4,0.2-0.6c0.1-0.4,0.2-0.7,0.4-1c0.1-0.2,0.3-0.4,0.5-0.6c0.2-0.3,0.4-0.5,0.6-0.8c0.2-0.2,0.4-0.3,0.7-0.5
		c0.2-0.2,0.5-0.4,0.7-0.6l0,0l81.2-46.7c2.1-1.2,4.7-1.2,6.8,0l81.2,46.7l0,0c0.3,0.2,0.5,0.4,0.7,0.6s0.5,0.3,0.7,0.5
		s0.4,0.5,0.6,0.8c0.1,0.2,0.3,0.4,0.5,0.6c0.2,0.3,0.3,0.7,0.4,1c0.1,0.2,0.2,0.4,0.2,0.6c0.2,0.6,0.2,1.2,0.2,1.8v173.6l67.6-38.9
		v-88.8c0-0.6,0.1-1.2,0.2-1.8c0.1-0.2,0.2-0.4,0.2-0.6c0.1-0.4,0.3-0.7,0.4-1c0.1-0.2,0.3-0.4,0.5-0.6c0.2-0.3,0.4-0.5,0.6-0.8
		c0.2-0.2,0.4-0.3,0.7-0.5c0.3-0.2,0.5-0.4,0.7-0.6l0,0l81.4-46.6c2.1-1.2,4.7-1.2,6.8,0l81.2,46.7c0.3,0.2,0.5,0.4,0.8,0.6
		c0.2,0.2,0.5,0.3,0.7,0.5c0.2,0.2,0.4,0.5,0.6,0.8c0.2,0.2,0.3,0.4,0.5,0.6c0.2,0.3,0.3,0.7,0.4,1
		C392.3,302.3,392.4,302.5,392.4,302.7z M379.1,393.2v-77.1l-28.4,16.3L311.5,355v77.1L379.1,393.2L379.1,393.2z M298,532.6v-77.1
		l-38.6,22l-110.2,62.9v77.8C149.2,618.3,298,532.6,298,532.6z M-13.1,270.2v262.4l148.8,85.7v-77.8l-77.7-44l0,0l0,0
		c-0.3-0.2-0.5-0.4-0.7-0.6s-0.5-0.3-0.6-0.5l0,0c-0.2-0.2-0.4-0.5-0.6-0.7s-0.4-0.4-0.5-0.7l0,0c-0.2-0.3-0.2-0.6-0.4-0.8
		c-0.1-0.3-0.3-0.5-0.3-0.8l0,0c-0.1-0.3-0.1-0.7-0.1-1s-0.1-0.5-0.1-0.8l0,0V309.2l-39.2-22.6L-13.1,270.2L-13.1,270.2z
		 M61.3,219.6l-67.7,38.9l67.6,38.9l67.6-38.9L61.3,219.6L61.3,219.6z M96.4,462.5l39.2-22.6V270.2l-28.4,16.3L68,309.2v169.7
		L96.4,462.5z M304.7,265.6l-67.6,38.9l67.6,38.9l67.6-38.9C372.3,304.5,304.7,265.6,304.7,265.6z M298,355.1l-39.2-22.6l-28.4-16.3
		v77.1l39.2,22.6l28.4,16.4C298,432.2,298,355.1,298,355.1z M142.4,528.8l99.2-56.6l49.6-28.3L223.6,405l-77.8,44.8l-70.9,40.8
		C74.9,490.6,142.4,528.8,142.4,528.8z"/>
</g>
<g id="Layer_9" class="st0">
	<path id="XMLID_128_" class="st20" d="M70.9,541.7H54.2c-0.6-28.2-2.2-54.7-4.9-79.5h-0.1l-25.4,79.5H11.2L-14,462.2h-0.1
		c-1.9,23.8-3,50.4-3.5,79.5h-15.3c1-35.5,3.4-68.7,7.4-99.8h20.6l24,73.3h0.1l24.2-73.3h19.8C67.6,478.3,70.1,511.6,70.9,541.7
		 M143.2,468.1c-6.8,36.9-15.7,63.7-26.8,80.5c-8.7,12.9-18.1,19.3-28.5,19.3c-2.8,0-6.1-0.8-10.2-2.5v-8.9c2,0.3,4.3,0.4,6.9,0.4
		c4.8,0,8.7-1.3,11.7-4c3.5-3.2,5.3-6.9,5.3-10.9c0-2.8-1.4-8.4-4.1-17l-18.3-56.9h16.4l13.1,42.6c2.9,9.7,4.2,16.4,3.7,20.3
		c7.2-19.2,12.2-40.2,15-62.8h15.8"/>
	<g id="XMLID_119_" class="st1">
		<path id="XMLID_112_" class="st21" d="M216.2,514.1c0,8.5-3.1,15.4-9.3,20.8c-6.2,5.4-14.5,8.1-24.9,8.1c-9.7,0-19.2-3.1-28.3-9.3
			l4.3-8.6c7.9,3.9,15,5.9,21.4,5.9c6,0,10.7-1.3,14.1-4c3.4-2.7,5.4-6.4,5.4-11.1c0-5.9-4.1-11-11.7-15.2
			c-7-3.8-20.9-11.9-20.9-11.9c-7.6-5.5-11.3-11.5-11.3-21.2c0-8.1,2.8-14.6,8.5-19.6s13-7.5,21.9-7.5c9.2,0,17.6,2.5,25.2,7.4
			l-3.8,8.6c-6.5-2.8-12.9-4.1-19.2-4.1c-5.1,0-9,1.2-11.8,3.7s-4.5,5.6-4.5,9.5c0,5.9,4.2,11,12,15.4c7.1,3.8,21.4,12,21.4,12
			C212.3,498.5,216.2,504.4,216.2,514.1"/>
		<path id="XMLID_124_" class="st21" d="M245.9,521.8c-4-6.5-6.1-16.9-6.1-31.3c0-25.1,7.6-37.7,22.9-37.7c8,0,13.8,3,17.6,9
			c4,6.5,6,16.9,6,31.1c0,25.3-7.6,38-22.9,38C255.5,530.8,249.7,527.8,245.9,521.8 M305.2,544.1l-18.3-9c1.6-1.3,3.2-2.8,4.6-4.5
			c7.8-9.2,11.7-22.7,11.7-40.6c0-33-12.9-49.5-38.8-49.5c-12.7,0-22.6,4.2-29.6,12.6c-7.8,9.2-11.7,22.7-11.7,40.5
			c0,17.5,3.4,30.4,10.3,38.6c6.3,7.4,15.8,11.1,28.4,11.1c4.7,0,9.1-0.6,13-1.8l23.8,13.9L305.2,544.1"/>
		<path id="XMLID_120_" class="st21" d="M364.9,541.7h-47.3v-99.8h15.9v87.5h31.4V541.7z M376.3,541.7h2.6v-10.2h3.5v-2.1h-9.7v2.1
			h3.6V541.7z M396.4,541.7h2.5v-12.2h-3.7l-3,8.3l-3.3-8.3h-3.6v12.2h2.4v-9.3h0.1l3.5,9.3h1.8l3.5-9.3L396.4,541.7z"/>
	</g>
	<g id="XMLID_116_" class="st1">
		<path id="XMLID_106_" class="st22" d="M384.9,408.5c-9.6-0.2-17.1,0.7-23.3,3.4c-1.8,0.7-4.7,0.7-4.9,3c1,1,1.1,2.5,1.9,3.9
			c1.4,2.4,4,5.7,6.2,7.4c2.5,1.9,5.1,3.9,7.7,5.5c4.7,2.9,10,4.6,14.5,7.5c2.7,1.7,5.3,3.9,7.9,5.7c1.3,1,2.2,2.5,3.8,3.1v-0.4
			c-0.8-1.1-1.1-2.6-1.9-3.9c-1.2-1.2-2.4-2.3-3.6-3.5c-3.5-4.7-7.8-8.8-12.5-12.2c-3.9-2.7-12.3-6.3-13.8-10.7l-0.2-0.2
			c2.6-0.2,5.8-1.2,8.3-1.9c4.1-1.1,7.8-0.8,12-1.9c1.9-0.5,3.9-1.1,5.8-1.7v-1.1c-2.2-2.2-3.7-5.1-6-7.1
			c-6.1-5.3-12.9-10.5-19.8-14.8c-3.7-2.4-8.5-4-12.5-6c-1.4-0.7-3.8-1.1-4.7-2.3c-2.2-2.7-3.4-6.1-4.9-9.3c-3.5-6.6-6.9-14-9.9-21
			c-2.2-4.7-3.5-9.4-6.1-13.7c-12.4-20.5-25.9-32.9-46.5-45.1c-4.4-2.5-9.7-3.6-15.4-4.9c-3-0.1-6-0.4-9-0.5
			c-1.9-0.8-3.9-3.1-5.5-4.2c-6.9-4.3-24.5-13.7-29.6-1.3c-3.2,7.8,4.8,15.6,7.6,19.5c2,2.8,4.7,5.9,6.1,9c0.8,2.1,1.1,4.2,1.9,6.4
			c1.9,5.3,3.7,11.2,6.3,16.2c1.3,2.5,2.8,5.2,4.4,7.5c1,1.3,2.6,1.9,3,4.1c-1.7,2.4-1.8,6-2.8,9c-4.3,13.6-2.6,30.5,3.5,40.5
			c1.9,3,6.5,9.6,12.6,7.1c5.4-2.2,4.2-9,5.8-15.1c0.4-1.5,0.1-2.4,0.8-3.4v0.2c1.7,3.4,3.4,6.6,4.9,10c3.7,5.9,10.2,12.1,15.6,16.1
			c2.9,2.2,5.2,5.9,8.8,7.2v-0.4h-0.2c-0.7-1.1-1.8-1.6-2.8-2.4c-2.2-2.2-4.6-4.8-6.3-7.2c-5-6.8-9.5-14.2-13.5-21.9
			c-1.9-3.7-3.6-7.8-5.2-11.6c-0.7-1.4-0.7-3.6-1.9-4.3c-1.8,2.6-4.4,4.9-5.8,8.2c-2.3,5.2-2.5,11.6-3.4,18.2
			c-0.5,0.1-0.2,0-0.5,0.2c-3.8-1-5.2-4.9-6.6-8.3c-3.6-8.6-4.2-22.3-1.1-32.2c0.8-2.5,4.5-10.5,3-12.9c-0.7-2.3-3.1-3.6-4.4-5.4
			c-1.6-2.3-3.3-5.2-4.3-7.7c-2.9-6.8-4.3-14.2-7.5-21c-1.4-3.1-4-6.4-6-9.3c-2.3-3.3-4.8-5.5-6.6-9.4c-0.6-1.3-1.4-3.5-0.5-4.9
			c0.2-1,0.7-1.3,1.7-1.6c1.6-1.3,6,0.4,7.6,1.1c4.5,1.8,8.2,3.5,11.9,6c1.7,1.2,3.5,3.5,5.7,4.1h2.5c3.8,0.8,8.2,0.2,11.8,1.3
			c6.4,2,12.1,5.1,17.3,8.3c15.7,10,28.7,24.2,37.5,41.2c1.4,2.8,2.1,5.3,3.4,8.2c2.5,5.9,5.7,11.9,8.2,17.7
			c2.5,5.7,4.9,11.5,8.5,16.2c1.8,2.5,9,3.9,12.3,5.2c2.4,1.1,6.1,2,8.3,3.4c4.1,2.5,8.2,5.4,12,8.2
			C378.6,403.1,384.6,406.1,384.9,408.5"/>
		<path id="XMLID_104_" class="st22" d="M262.3,303.7c-1.7,0-3.3,0.2-4.9,0.6v0.2h0.2c1,1.9,2.7,3.3,3.8,4.9c1,1.9,1.8,3.9,2.8,5.8
			c0.1-0.1,0.2-0.2,0.2-0.2c1.7-1.2,2.5-3.1,2.5-6c-0.7-0.8-0.8-1.7-1.4-2.5C264.8,305.3,263.2,304.7,262.3,303.7"/>
	</g>
</g>
<g id="Layer_10" class="st0">
	<g id="g3438" transform="matrix(1.25,0,0,-1.25,-4.4,394.29875)" class="st1">
		<g id="g3440">
			<g id="XMLID_156_">
				<g>
					<defs>
						<path id="SVGID_2_" d="M-23.4-24.2c0-50.3,77.5-91,173.1-91l0,0c95.6,0,173.1,40.8,173.1,91l0,0c0,50.3-77.5,91-173.1,91l0,0
							C54.1,66.9-23.4,26.1-23.4-24.2"/>
					</defs>
					<clipPath id="SVGID_3_">
						<use xlink:href="#SVGID_2_"  style="overflow:visible;"/>
					</clipPath>
					<g id="g3442" class="st23">
						<g id="g3448">
							<g id="g3450">
								
									<radialGradient id="path3462_1_" cx="-84.2356" cy="-413.0847" r="0.626" gradientTransform="matrix(567.278 0 0 -567.278 47865.543 -234299)" gradientUnits="userSpaceOnUse">
									<stop  offset="0" style="stop-color:#AEB2D5"/>
									<stop  offset="0.3" style="stop-color:#AEB2D5"/>
									<stop  offset="0.75" style="stop-color:#484C89"/>
									<stop  offset="1" style="stop-color:#484C89"/>
								</radialGradient>
								<path id="path3462" class="st24" d="M-23.4-24.2c0-50.3,77.5-91,173.1-91l0,0c95.6,0,173.1,40.8,173.1,91l0,0
									c0,50.3-77.5,91-173.1,91l0,0C54.1,66.9-23.4,26.1-23.4-24.2"/>
							</g>
						</g>
					</g>
				</g>
			</g>
		</g>
		<g id="g3464">
			<g id="XMLID_154_">
				<g>
					<defs>
						<rect id="SVGID_4_" x="-132" y="-182.7" width="563.4" height="316.9"/>
					</defs>
					<clipPath id="SVGID_5_">
						<use xlink:href="#SVGID_4_"  style="overflow:visible;"/>
					</clipPath>
					<g id="g3466" class="st25">
						<g id="g3472" transform="translate(288,27.3594)">
							<path id="path3474" class="st26" d="M-138.3-135.8C-46.4-135.8,28-98.1,28-51.5C28-5-46.5,32.8-138.3,32.8
								S-304.6-5-304.6-51.6C-304.6-98.1-230.2-135.8-138.3-135.8"/>
						</g>
					</g>
				</g>
			</g>
		</g>
		<g id="g3476">
			<g id="XMLID_138_">
				<g>
					<defs>
						<rect id="SVGID_6_" x="-132" y="-182.7" width="563.4" height="316.9"/>
					</defs>
					<clipPath id="SVGID_7_">
						<use xlink:href="#SVGID_6_"  style="overflow:visible;"/>
					</clipPath>
					<g id="g3478" class="st27">
						<g id="g3484" transform="translate(161.7344,145.3066)">
							<path id="path3486" d="M-91.1-180c7.6,0,13.2,1.4,16.8,4.1c3.5,2.7,6,7.4,7.2,14c1.2,6.1,0.7,10.4-1.3,12.7
								c-2.2,2.5-6.8,3.7-13.7,3.7h-12.1l-6.7-34.4L-91.1-180L-91.1-180z M-130.6-222.4c-0.6,0-1.1,0.3-1.4,0.7
								c-0.4,0.4-0.5,1-0.4,1.6l17.7,91.2c0.2,0.9,0.9,1.5,1.8,1.5h38.3c12,0,21-3.3,26.6-9.7s7.4-15.5,5.1-26.8
								c-0.8-4.7-2.4-9-4.5-12.8c-2.2-3.9-5-7.4-8.5-10.6c-4.1-3.9-8.8-6.7-13.9-8.3c-5-1.6-11.4-2.5-19.1-2.5h-15.5l-4.4-22.7
								c-0.2-0.9-0.9-1.5-1.8-1.5h-20V-222.4z"/>
						</g>
						<g id="g3488" transform="translate(159.2236,197.3071)">
							<path id="path3490" class="st8" d="M-90.1-199.4h10.5c8.4,0,11.3-1.8,12.3-2.9c1.6-1.8,2-5.7,0.9-11.1
								c-1.2-6.1-3.4-10.4-6.5-12.9c-3.2-2.5-8.5-3.7-15.6-3.7H-96L-90.1-199.4z M-72.1-177.5h-38.2c-1.8,0-3.3-1.3-3.7-3
								l-17.7-91.2c-0.2-1.1,0.1-2.2,0.8-3.1c0.7-0.9,1.8-1.4,2.9-1.4h19.9c1.8,0,3.3,1.3,3.7,3l4.1,21.2h13.9
								c7.9,0,14.5,0.9,19.7,2.6c5.3,1.7,10.3,4.7,14.6,8.8c3.6,3.3,6.6,7,8.8,11.1c2.2,4,3.9,8.5,4.8,13.3
								c2.3,12,0.4,21.5-5.6,28.5C-50.1-181-59.5-177.5-72.1-177.5 M-100.7-233.8h12.1c8,0,14,1.5,17.9,4.5c3.9,3,6.6,8.1,7.9,15.1
								c1.3,6.8,0.7,11.6-1.8,14.4s-7.5,4.2-15.1,4.2h-13.6L-100.7-233.8 M-72.1-181.2c11.5,0,19.9-3,25.2-9.1
								c5.3-6,6.9-14.5,4.8-25.3c-0.9-4.4-2.4-8.5-4.5-12.2c-2.1-3.7-4.8-7.1-8.1-10.1c-4-3.7-8.4-6.4-13.2-7.9
								c-4.9-1.6-11-2.4-18.5-2.4h-17l-4.7-24.3H-128l17.7,91.2h38.2"/>
						</g>
						<g id="g3492" transform="translate(311.583,116.3066)">
							<path id="path3494" d="M-147.1-169.1c-0.6,0-1.1,0.3-1.4,0.7c-0.4,0.4-0.5,1-0.4,1.6l7.8,40.4c0.7,3.7,0.5,6.5-0.5,7.7
								c-0.7,0.7-2.6,1.9-8.5,1.9h-14.2l-9.9-50.8c-0.2-0.9-0.9-1.5-1.8-1.5h-19.7c-0.6,0-1.1,0.3-1.4,0.7c-0.4,0.4-0.5,1-0.4,1.6
								l17.7,91.2c0.2,0.9,0.9,1.5,1.8,1.5h19.7c0.6,0,1.1-0.3,1.4-0.7c0.4-0.4,0.5-1,0.4-1.6l-4.3-22h15.3
								c11.6,0,19.5-2.1,24.1-6.3c4.7-4.3,6.2-11.2,4.3-20.5l-8.3-42.5c-0.2-0.9-0.9-1.5-1.8-1.5L-147.1-169.1L-147.1-169.1z"/>
						</g>
						<g id="g3496" transform="translate(293.6611,271.0571)">
							<path id="path3498" class="st8" d="M-140.4-227h-19.7c-1.8,0-3.3-1.3-3.7-3l-17.7-91.2c-0.2-1.1,0.1-2.2,0.8-3.1
								c0.7-0.9,1.8-1.4,2.9-1.4h19.7c1.8,0,3.3,1.3,3.7,3l9.6,49.2h12.7c5.9,0,7.1-1.3,7.1-1.3c0.4-0.4,0.8-2.2,0.1-6.1l-7.8-40.4
								c-0.2-1.1,0.1-2.2,0.8-3.1c0.7-0.9,1.8-1.4,2.9-1.4h20c1.8,0,3.3,1.3,3.7,3l8.3,42.5c1.9,10,0.3,17.4-4.9,22.2
								c-5,4.6-13.3,6.8-25.4,6.8h-13l3.8,19.8c0.2,1.1-0.1,2.2-0.8,3.1C-138.2-227.5-139.3-227-140.4-227 M-140.4-230.7l-4.7-24.3
								h17.5c11.1,0,18.7-1.9,22.9-5.8c4.2-3.9,5.5-10.1,3.8-18.7l-8.3-42.5h-20l7.8,40.4c0.9,4.6,0.6,7.7-1,9.4
								c-1.6,1.7-4.8,2.5-9.9,2.5h-15.8l-10.2-52.3H-178l17.7,91.2L-140.4-230.7"/>
						</g>
						<g id="g3500" transform="translate(409.5498,145.3066)">
							<path id="path3502" d="M-183.8-180c7.6,0,13.2,1.4,16.8,4.1c3.5,2.7,6,7.4,7.2,14c1.2,6.1,0.7,10.4-1.3,12.7
								c-2.1,2.4-6.7,3.6-13.7,3.6h-12.1l-6.7-34.4H-183.8z M-223.2-222.4c-0.6,0-1.1,0.3-1.4,0.7c-0.4,0.4-0.5,1-0.4,1.6l17.7,91.2
								c0.2,0.9,0.9,1.5,1.8,1.5h38.2c12,0,21-3.3,26.6-9.7c5.6-6.5,7.4-15.5,5.2-26.9c-0.9-4.6-2.4-8.9-4.6-12.8
								c-2.2-3.9-5-7.4-8.5-10.6c-4.1-3.9-8.8-6.7-13.9-8.3c-5-1.6-11.4-2.5-19.1-2.5h-15.5l-4.4-22.7c-0.2-0.9-0.9-1.5-1.8-1.5
								C-203.3-222.4-223.2-222.4-223.2-222.4z"/>
						</g>
						<g id="g3504" transform="translate(407.0391,197.3071)">
							<path id="path3506" class="st8" d="M-182.8-199.4h10.5c8.4,0,11.3-1.8,12.3-2.9c1.6-1.8,2-5.7,0.9-11.1
								c-1.2-6.1-3.4-10.4-6.5-12.9c-3.2-2.5-8.5-3.7-15.6-3.7h-7.5L-182.8-199.4z M-164.8-177.5H-203c-1.8,0-3.3-1.3-3.7-3
								l-17.7-91.2c-0.2-1.1,0.1-2.2,0.8-3.1c0.7-0.9,1.8-1.4,2.9-1.4h19.9c1.8,0,3.3,1.3,3.7,3l4.1,21.2h13.9
								c7.9,0,14.5,0.9,19.7,2.6c5.3,1.7,10.3,4.7,14.6,8.8c3.6,3.3,6.6,7,8.8,11.1c2.2,4,3.9,8.5,4.8,13.3
								c2.3,12,0.4,21.5-5.6,28.5C-142.8-181-152.2-177.5-164.8-177.5 M-193.3-233.8h12.1c8,0,14,1.5,17.9,4.5
								c3.9,3,6.6,8.1,7.9,15.1c1.3,6.8,0.7,11.6-1.8,14.4s-7.5,4.2-15.1,4.2h-13.6L-193.3-233.8 M-164.8-181.2
								c11.5,0,19.9-3,25.2-9.1c5.3-6,6.9-14.5,4.8-25.3c-0.9-4.5-2.3-8.5-4.4-12.2c-2.1-3.7-4.8-7.1-8.1-10.1
								c-4-3.7-8.4-6.4-13.2-7.9c-4.9-1.6-11-2.4-18.5-2.4h-17l-4.7-24.3h-19.9l17.7,91.2L-164.8-181.2"/>
						</g>
					</g>
				</g>
			</g>
		</g>
	</g>
</g>
<g id="Layer_11" class="st0">
	<path id="XMLID_139_" class="st28" d="M338.7,445.1c-15,0.1-28.1,3.7-39.1,9.1c-4-8-8-15-8.7-20.2c-0.8-6.1-1.7-9.8-0.8-17
		c0.9-7.2,5.2-17.6,5.1-18.4s-0.9-4.5-9.6-4.6s-16.2,1.7-17,3.9c-0.9,2.3-2.5,7.5-3.6,12.8c-1.5,7.9-17.3,36-26.4,50.7
		c-2.9-5.8-5.4-10.8-6-14.8c-0.8-6.1-1.7-9.8-0.8-17c0.9-7.2,5.2-17.6,5.1-18.4c-0.1-0.8-0.9-4.5-9.6-4.6s-16.2,1.7-17,3.9
		c-0.9,2.3-1.8,7.6-3.6,12.8c-1.8,5.2-22.8,52.2-28.4,64.3c-2.8,6.2-5.3,11.2-7,14.6l0,0c0,0-0.1,0.2-0.3,0.6
		c-1.5,2.9-2.4,4.5-2.4,4.5s0,0,0,0.1c-1.2,2.1-2.4,4.1-3.1,4.1c-0.5,0-1.3-5.7,0.2-13.4c3.2-16.3,10.6-41.7,10.6-42.5
		c0-0.5,1.4-4.9-4.9-7.2c-6.1-2.3-8.4,1.5-8.9,1.5c-0.6,0-0.9,1.3-0.9,1.3s6.9-28.5-13.1-28.5c-12.4,0-29.6,13.6-38.1,25.9
		c-5.4,2.9-16.8,9.1-29,15.8c-4.6,2.6-9.5,5.2-13.9,7.6c-0.3-0.3-0.6-0.7-0.9-1c-24.1-25.8-68.7-44-66.8-78.5
		c0.7-12.6,5-45.7,85.6-85.9c66.3-32.7,119.1-23.6,128.3-3.5c13.1,28.7-28.3,81.9-96.8,89.7c-26.2,2.9-39.9-7.2-43.3-11
		c-3.6-3.9-4.2-4.2-5.5-3.4c-2.2,1.2-0.8,4.7,0,6.8c2,5.4,10.5,14.8,24.7,19.5c12.6,4.1,43.3,6.4,80.4-8
		c41.5-16.1,74-60.7,64.4-98.2c-9.5-38-72.6-50.5-132.2-29.3c-35.5,12.6-73.9,32.5-101.6,58.3c-32.9,30.7-38.1,57.4-35.9,68.6
		c7.6,39.7,62.4,65.5,84.3,84.7c-1.1,0.6-2.1,1.2-3,1.7c-11,5.4-52.7,27.3-63.1,50.3c-11.8,26.2,1.9,44.9,11,47.4
		c28.1,7.8,57-6.2,72.6-29.4c15.6-23.2,13.6-53.3,6.5-67c-0.1-0.2-0.2-0.3-0.3-0.5c2.8-1.7,5.8-3.4,8.6-5c5.6-3.3,11.1-6.4,15.8-8.9
		c-2.7,7.3-4.6,16.1-5.6,28.7c-1.2,14.8,4.9,34,12.8,41.6c3.5,3.3,7.7,3.4,10.4,3.4c9.3,0,13.5-7.7,18.1-16.9
		c5.7-11.2,10.8-24.2,10.8-24.2s-6.4,35.1,11,35.1c6.3,0,12.7-8.2,15.5-12.4c0,0.1,0,0.1,0,0.1s0.2-0.2,0.5-0.8c0.6-1,1-1.7,1-1.7
		s0-0.1,0-0.2c2.5-4.4,8.2-14.4,16.6-31c10.9-21.4,21.4-48.2,21.4-48.2s0.9,6.5,4.2,17.4c1.9,6.4,5.8,13.4,9,20.2
		c-2.5,3.5-4.1,5.5-4.1,5.5s0,0,0.1,0.1c-2,2.7-4.3,5.6-6.7,8.4c-8.6,10.2-18.8,22-20.2,25.4c-1.7,4-1.3,6.9,1.9,9.3
		c2.3,1.7,6.4,2,10.6,1.7c7.7-0.6,13.2-2.4,15.8-3.6c4.2-1.5,9.1-3.8,13.6-7.2c8.4-6.2,13.6-15.1,13.1-26.9c-0.2-6.5-2.4-12.9-5-19
		c0.8-1.1,1.5-2.2,2.3-3.3c13.3-19.5,23.6-40.8,23.6-40.8s0.9,6.5,4.2,17.4c1.6,5.5,4.8,11.5,7.6,17.3c-12.5,10.2-20.2,22-23,29.7
		c-5,14.3-1.1,20.8,6.2,22.3c3.3,0.7,8-0.9,11.5-2.4c4.4-1.4,9.6-3.9,14.6-7.5c8.4-6.2,16.5-14.9,16.1-26.6
		c-0.2-5.4-1.7-10.6-3.6-15.8c10.6-4.4,24.3-6.9,41.8-4.8c37.5,4.4,44.9,27.8,43.5,37.7c-1.4,9.8-9.3,15.2-11.9,16.9
		c-2.6,1.7-3.5,2.2-3.2,3.4c0.3,1.7,1.6,1.7,3.8,1.3c3.1-0.6,19.7-8,20.4-26.1C399.8,470.2,377.7,444.9,338.7,445.1z M49.4,542.7
		C37,556.3,19.6,561.4,12.1,557c-8-4.6-4.9-24.7,10.4-39c9.3-8.7,21.3-16.9,29.2-21.8c1.8-1.1,4.5-2.7,7.7-4.6
		c0.6-0.3,0.9-0.5,0.9-0.5l0,0c0.6-0.4,1.3-0.8,1.9-1.2C67.9,510.3,62.5,528.4,49.4,542.7z M140.1,481
		c-4.3,10.6-13.4,37.6-18.9,36.1c-4.7-1.3-7.6-21.7-0.9-42c3.4-10.2,10.6-22.3,14.7-27c6.8-7.6,14.3-10.1,16.1-7
		C153.3,445.1,142.7,474.4,140.1,481z M214.8,516.8c-1.8,0.9-3.5,1.6-4.3,1.1c-0.6-0.3,0.8-1.6,0.8-1.6s9.4-10.1,13.1-14.7
		c2.1-2.7,4.6-5.8,7.3-9.4c0,0.3,0,0.7,0,1C231.7,505.4,220,513.5,214.8,516.8z M272.5,503.7c-1.3-0.9-1.1-4.1,3.4-13.9
		c1.7-3.9,5.8-10.3,12.8-16.5c0.8,2.5,1.3,5,1.3,7.2C289.9,495.6,279,501.3,272.5,503.7z"/>
</g>
<linearGradient id="SVGID_8_" gradientUnits="userSpaceOnUse" x1="-113.9824" y1="841.5357" x2="-113.785" y2="841.4674" gradientTransform="matrix(2500 0 0 -1500 284886 1262672)">
	<stop  offset="0" style="stop-color:#2298BD"/>
	<stop  offset="1" style="stop-color:#0ED7B5"/>
</linearGradient>
<path class="st29" d="M183,276.9c-64,0-104,32-120,96c24-32,52-44,84-36c18.3,4.6,31.3,17.8,45.8,32.5
	c23.5,23.9,50.8,51.5,110.2,51.5c64,0,104-32,120-96c-24,32-52,44-84,36c-18.3-4.6-31.3-17.8-45.8-32.5
	C269.7,304.5,242.5,276.9,183,276.9z M63,420.9c-64,0-104,32-120,96c24-32,52-44,84-36c18.3,4.6,31.3,17.8,45.8,32.5
	c23.5,23.9,50.8,51.5,110.2,51.5c64,0,104-32,120-96c-24,32-52,44-84,36c-18.3-4.6-31.3-17.8-45.8-32.5
	C149.7,448.5,122.5,420.9,63,420.9z"/>
</svg>
